<svg width="145" height="66" viewBox="0 0 145 66" fill="none" xmlns="http://www.w3.org/2000/svg">
<path d="M54.7093 39.7372C54.4746 39.7372 54.2399 39.6412 54.0052 39.4492C53.7812 39.2679 53.5839 38.9639 53.4132 38.5372C53.2426 38.1105 53.1252 37.5452 53.0613 36.8412C53.0079 36.4145 52.9013 36.0785 52.7412 35.8332C52.6026 35.6412 52.5333 35.4385 52.5333 35.2252C52.5333 35.0652 52.5973 34.8785 52.7252 34.6652C52.7892 34.5692 52.8319 34.4679 52.8532 34.3612C52.8853 34.2545 52.9013 34.0679 52.9013 33.8012L52.8532 31.4332C52.8532 31.1239 52.7572 30.8412 52.5652 30.5852C52.3519 30.2865 52.2452 30.0145 52.2452 29.7692C52.2452 29.5772 52.2879 29.4012 52.3733 29.2412C52.4586 29.0812 52.5546 28.9265 52.6612 28.7772C52.7679 28.6279 52.8532 28.4839 52.9173 28.3452C53.0026 28.1425 53.1519 27.9772 53.3652 27.8492C53.5786 27.7212 53.7973 27.6572 54.0213 27.6572C54.1919 27.6572 54.3519 27.6999 54.5012 27.7852C54.6506 27.8599 54.9172 27.8972 55.3012 27.8972C55.6959 27.8972 56.1706 27.8759 56.7253 27.8332C57.3866 27.7799 58.0426 27.7532 58.6932 27.7532C59.1093 27.7532 59.4986 27.7745 59.8613 27.8172C60.2239 27.8599 60.5333 27.9399 60.7893 28.0572C61.0559 28.1639 61.2532 28.3132 61.3813 28.5052C61.5092 28.6865 61.5732 28.8679 61.5732 29.0492C61.5732 29.2945 61.4772 29.5132 61.2852 29.7052C61.0933 29.8865 60.8212 29.9772 60.4692 29.9772L60.1973 29.9612C59.7706 29.9079 59.3386 29.8812 58.9012 29.8812C58.0159 29.8812 57.1306 29.9505 56.2453 30.0892H56.2292C55.9306 30.1105 55.7386 30.1585 55.6533 30.2332C55.5679 30.2972 55.5253 30.4839 55.5253 30.7932L55.5412 31.9132H55.6053C55.6053 32.1905 55.5999 32.4305 55.5893 32.6332V33.0012C55.5893 33.2572 55.6106 33.4279 55.6533 33.5132C55.6959 33.5879 55.7866 33.6252 55.9253 33.6252C56.0319 33.6252 56.1546 33.6145 56.2932 33.5932C56.4426 33.5719 56.6079 33.5559 56.7893 33.5452L57.5412 33.4812C58.0959 33.4279 58.5226 33.4012 58.8212 33.4012C59.1839 33.4012 59.4772 33.4705 59.7012 33.6092C60.0639 33.8652 60.2453 34.1479 60.2453 34.4572C60.2453 34.7239 60.1226 34.9692 59.8772 35.1932C59.6426 35.4172 59.3013 35.5612 58.8533 35.6252L57.5892 35.7692C56.7999 35.8332 56.2666 35.9079 55.9893 35.9932C55.7119 36.0785 55.5732 36.2705 55.5732 36.5692C55.5732 36.7505 55.6052 37.0012 55.6693 37.3212C55.7652 37.8652 55.8132 38.2225 55.8132 38.3932C55.8132 38.7772 55.7012 39.0972 55.4772 39.3532C55.2533 39.6092 54.9973 39.7372 54.7093 39.7372ZM76.0239 39.7532C75.4905 39.7532 74.9839 39.6305 74.5039 39.3852C74.0239 39.1399 73.6132 38.7559 73.2719 38.2332C72.7599 37.4225 72.5039 36.4039 72.5039 35.1772C72.5039 34.6012 72.5465 34.0145 72.6319 33.4172C72.7172 32.8092 72.8132 32.2119 72.9199 31.6252C73.0159 31.1025 73.1012 30.6012 73.1759 30.1212C73.2505 29.6305 73.2879 29.1772 73.2879 28.7612V28.6492C73.2772 28.3505 73.0639 28.2012 72.6479 28.2012C72.1145 28.2012 71.4105 28.3985 70.5359 28.7932C69.6719 29.1879 68.9732 29.5932 68.4399 30.0092C68.1092 30.2545 67.9439 30.4625 67.9439 30.6332C67.9439 30.7185 67.9919 30.8199 68.0879 30.9372C68.1945 31.0439 68.3385 31.1772 68.5199 31.3372C68.8079 31.5825 69.1865 31.9612 69.6559 32.4732C70.3599 33.2625 70.7119 34.0999 70.7119 34.9852C70.7119 35.9665 70.3439 36.8305 69.6079 37.5772C68.6479 38.5479 67.4959 39.0332 66.1519 39.0332C65.2559 39.0332 64.5359 38.8039 63.9919 38.3452C63.4479 37.8759 63.0532 37.2679 62.8079 36.5212C62.5625 35.7745 62.4399 34.9905 62.4399 34.1692C62.4399 33.2839 62.5572 32.4305 62.7919 31.6092C63.0265 30.7772 63.3465 30.0945 63.7519 29.5612C64.1572 29.0279 64.6052 28.7612 65.0959 28.7612C65.2345 28.7612 65.3732 28.7825 65.5119 28.8252H65.5279C65.6452 28.8252 65.9279 28.6545 66.3759 28.3132C66.7812 28.0039 67.2985 27.6519 67.9279 27.2572C68.5679 26.8519 69.2825 26.4999 70.0719 26.2012C70.8719 25.8919 71.7145 25.7372 72.5999 25.7372C72.8985 25.7372 73.2025 25.7585 73.5119 25.8012C74.2479 25.9292 74.7812 26.1745 75.1119 26.5372C75.4532 26.8892 75.6719 27.2892 75.7679 27.7372C75.8745 28.1852 75.9332 28.6119 75.9439 29.0172C75.9652 29.3265 75.9972 29.5825 76.0399 29.7852C76.0932 29.9879 76.1945 30.1052 76.3439 30.1372C77.1332 30.2759 77.8905 30.5585 78.6159 30.9852C79.3412 31.4119 79.9439 31.9505 80.4239 32.6012C80.9039 33.2412 81.1439 33.9452 81.1439 34.7132C81.1439 35.0652 81.0852 35.4225 80.9679 35.7852C80.5305 36.9905 79.8425 37.9505 78.9039 38.6652C77.9652 39.3905 77.0052 39.7532 76.0239 39.7532ZM66.5199 36.0572C66.8292 36.0572 67.1119 35.9345 67.3679 35.6892C67.6345 35.4332 67.7679 35.1559 67.7679 34.8572C67.7679 34.7292 67.7359 34.6012 67.6719 34.4732C67.5545 34.2919 67.2452 33.9345 66.7439 33.4012C66.1359 32.7612 65.7305 32.4412 65.5279 32.4412C65.3785 32.4412 65.3039 32.8785 65.3039 33.7532C65.3039 34.6172 65.4265 35.2199 65.6719 35.5612C65.9279 35.8919 66.2105 36.0572 66.5199 36.0572ZM76.2959 36.8092C76.7012 36.8092 77.1119 36.5745 77.5279 36.1052C77.9439 35.6252 78.1519 35.1559 78.1519 34.6972C78.1519 34.4412 78.0665 34.2172 77.8959 34.0252C77.3092 33.3959 76.5679 32.9319 75.6719 32.6332C75.4799 33.6145 75.3839 34.4092 75.3839 35.0172C75.3839 35.6785 75.4745 36.1425 75.6559 36.4092C75.8372 36.6759 76.0505 36.8092 76.2959 36.8092ZM91.8398 39.5772C91.4878 39.5772 91.1678 39.4225 90.8798 39.1132C90.6345 38.7932 90.4638 38.4519 90.3678 38.0892C90.2825 37.7159 90.2238 37.3159 90.1918 36.8892C90.1598 36.4519 90.0905 35.9825 89.9838 35.4812C89.8451 35.5025 89.7011 35.6572 89.5518 35.9452C89.4238 36.2759 89.0611 36.8092 88.4638 37.5452C87.4611 38.6865 86.4531 39.2572 85.4398 39.2572C84.5651 39.2572 83.8345 38.8839 83.2478 38.1372C82.6611 37.3799 82.3678 36.4945 82.3678 35.4812C82.3678 34.8412 82.5065 34.1905 82.7838 33.5292C83.3918 32.0785 84.6558 30.9479 86.5758 30.1372C87.2905 29.8599 87.8931 29.7212 88.3838 29.7212C88.4478 29.7212 88.5065 29.7265 88.5598 29.7372H88.7038C88.8425 29.7372 88.9491 29.7052 89.0238 29.6412C89.0985 29.5665 89.1571 29.4065 89.1998 29.1612C89.2531 28.9052 89.3118 28.5105 89.3758 27.9772C89.4398 27.4439 89.5411 26.7239 89.6798 25.8172C89.7651 25.3159 89.9305 24.9479 90.1758 24.7132C90.4318 24.4679 90.7145 24.3452 91.0238 24.3452C91.3011 24.3452 91.5678 24.4359 91.8238 24.6172C92.2505 24.9799 92.5118 25.7745 92.6078 27.0012C92.6825 28.0039 92.7198 29.1399 92.7198 30.4092V31.2732C92.7198 32.4145 92.7358 33.5559 92.7678 34.6972C92.8105 35.8385 92.9065 36.9052 93.0558 37.8972C93.0771 38.0145 93.0878 38.1265 93.0878 38.2332C93.0878 38.6705 92.9598 39.0012 92.7038 39.2252C92.4478 39.4599 92.1598 39.5772 91.8398 39.5772ZM85.5358 36.6492C86.0905 36.6492 86.7358 35.9772 87.4718 34.6332C87.7385 34.1425 87.9785 33.6519 88.1918 33.1612C88.4051 32.6599 88.5118 32.2865 88.5118 32.0412C88.5118 31.8919 88.4585 31.8172 88.3518 31.8172L88.2398 31.8332C87.4398 32.1532 86.7945 32.5425 86.3038 33.0012C85.8238 33.4599 85.4718 33.9345 85.2478 34.4252C85.0345 34.9159 84.9278 35.3479 84.9278 35.7212C84.9278 35.9985 84.9811 36.2225 85.0878 36.3932C85.1945 36.5639 85.3438 36.6492 85.5358 36.6492ZM98.9666 39.8172C98.2732 39.8172 97.8199 39.1559 97.6066 37.8332C97.4572 36.9585 97.3772 35.6305 97.3666 33.8492C97.3666 32.8892 97.3346 32.0732 97.2706 31.4012C97.2172 30.7292 97.0572 30.3932 96.7906 30.3932C96.2359 30.4359 95.7559 30.5159 95.3506 30.6332C95.0199 30.7399 94.7266 30.7932 94.4706 30.7932C94.2572 30.7932 94.0706 30.7399 93.9106 30.6332C93.7506 30.5159 93.6012 30.3079 93.4626 30.0092C93.3666 29.7959 93.3186 29.6039 93.3186 29.4332C93.3186 28.9959 93.5852 28.6652 94.1186 28.4412C94.6412 28.2172 95.3186 28.0572 96.1506 27.9612C96.9826 27.8545 97.8839 27.7692 98.8546 27.7052C100.337 27.6199 101.708 27.4599 102.967 27.2252C103.084 27.2039 103.201 27.1932 103.319 27.1932C103.681 27.1932 103.975 27.2999 104.199 27.5132C104.433 27.7159 104.551 27.9505 104.551 28.2172C104.551 28.4945 104.407 28.7665 104.119 29.0332C103.841 29.2892 103.372 29.4812 102.711 29.6092C101.921 29.7479 101.297 29.8332 100.839 29.8652C100.391 29.8972 100.081 29.9505 99.9106 30.0252C99.7399 30.0999 99.6546 30.2919 99.6546 30.6012C99.6546 30.8252 99.6812 31.1345 99.7346 31.5292C99.8412 32.2225 99.9212 33.3425 99.9746 34.8892C99.9959 35.7319 100.028 36.4412 100.071 37.0172C100.113 37.5292 100.135 37.9612 100.135 38.3132C100.135 38.7399 100.081 39.0652 99.9746 39.2892C99.8679 39.5132 99.6652 39.6679 99.3666 39.7532C99.2279 39.7959 99.0946 39.8172 98.9666 39.8172ZM106.335 39.5292C105.471 39.5292 104.937 39.1719 104.735 38.4572C104.596 37.9879 104.527 37.4599 104.527 36.8732C104.527 36.4039 104.543 35.9239 104.575 35.4332C104.607 34.9852 104.623 34.5799 104.623 34.2172C104.623 33.8332 104.591 33.5132 104.527 33.2572C104.377 32.7132 104.303 32.1585 104.303 31.5932V30.8572C104.303 30.5692 104.399 30.3185 104.591 30.1052C104.793 29.8919 105.039 29.7852 105.327 29.7852C105.561 29.7852 105.812 29.8812 106.079 30.0732C106.345 30.2545 106.532 30.4999 106.639 30.8092C106.681 30.9372 106.729 31.0012 106.783 31.0012C106.868 31.0012 107.055 30.8892 107.343 30.6652C108.057 30.1212 108.751 29.7319 109.423 29.4972C110.095 29.2625 110.708 29.1452 111.263 29.1452C111.945 29.1452 112.495 29.2892 112.911 29.5772C113.337 29.8545 113.551 30.1959 113.551 30.6012C113.551 30.7505 113.519 30.9052 113.455 31.0652C113.337 31.3319 113.199 31.5132 113.039 31.6092C112.879 31.7052 112.703 31.7532 112.511 31.7532C112.351 31.7532 112.175 31.7372 111.983 31.7052C111.791 31.6625 111.593 31.6412 111.391 31.6412C111.209 31.6412 111.023 31.6732 110.831 31.7372C109.785 32.1532 109.023 32.6812 108.543 33.3212C108.073 33.9612 107.769 34.6385 107.631 35.3532C107.503 36.0572 107.433 36.7239 107.423 37.3532C107.401 37.7692 107.364 38.1425 107.311 38.4732C107.268 38.8039 107.172 39.0599 107.023 39.2412C106.884 39.4332 106.655 39.5292 106.335 39.5292ZM117.782 39.4652C116.993 39.4652 116.342 39.2465 115.83 38.8092C115.318 38.3825 114.934 37.8172 114.678 37.1132C114.433 36.4092 114.31 35.6572 114.31 34.8572C114.31 33.6625 114.572 32.5105 115.094 31.4012C115.628 30.2919 116.406 29.5025 117.43 29.0332C117.75 28.9052 118.022 28.8412 118.246 28.8412C118.502 28.8412 118.71 28.8945 118.87 29.0012C119.041 29.0972 119.196 29.2039 119.334 29.3212C119.516 29.4919 119.702 29.6039 119.894 29.6572C120.769 29.8812 121.43 30.4572 121.878 31.3852C122.326 32.3132 122.566 33.2732 122.598 34.2652C122.385 35.8972 121.814 37.1505 120.886 38.0252C119.884 38.9852 118.849 39.4652 117.782 39.4652ZM117.814 36.5212C117.921 36.5212 118.038 36.4892 118.166 36.4252C118.561 36.2012 118.876 35.8705 119.11 35.4332C119.356 34.9852 119.478 34.5212 119.478 34.0412L119.462 33.7212C119.409 33.2625 119.281 32.8519 119.078 32.4892C118.886 32.1265 118.561 31.6999 118.102 31.2092C117.761 31.4439 117.494 31.8972 117.302 32.5692C117.121 33.2412 117.03 33.9185 117.03 34.6012C117.03 35.1239 117.089 35.5772 117.206 35.9612C117.334 36.3345 117.537 36.5212 117.814 36.5212ZM128.081 40.8412C127.302 40.8412 126.635 40.2599 126.081 39.0972C125.718 38.3185 125.323 37.1399 124.897 35.5612C124.683 34.7079 124.465 33.9825 124.241 33.3852C123.985 32.6812 123.857 32.1159 123.857 31.6892C123.857 31.2625 123.953 30.9532 124.145 30.7612C124.337 30.5692 124.561 30.4732 124.817 30.4732C125.083 30.4732 125.35 30.5639 125.617 30.7452C125.883 30.9265 126.081 31.1665 126.209 31.4652C126.785 32.9479 127.206 34.1692 127.473 35.1292C127.633 35.6732 127.766 36.0999 127.873 36.4092C127.99 36.7079 128.113 36.8572 128.241 36.8572C128.422 36.8572 128.667 36.4572 128.977 35.6572C129.222 35.0492 129.745 33.5772 130.545 31.2412C130.769 30.6332 131.03 30.1959 131.329 29.9292C131.627 29.6519 131.921 29.5132 132.209 29.5132C132.497 29.5132 132.742 29.6305 132.945 29.8652C133.147 30.0892 133.249 30.3932 133.249 30.7772C133.249 30.9585 133.217 31.1559 133.153 31.3692C132.769 32.7239 132.353 34.0572 131.905 35.3692C131.467 36.6705 130.998 37.7959 130.497 38.7452C130.006 39.7052 129.494 40.3292 128.961 40.6172C128.641 40.7665 128.347 40.8412 128.081 40.8412ZM139.857 39.5932H139.409C138.182 39.5932 137.185 39.3532 136.417 38.8732C135.66 38.3932 135.1 37.7692 134.737 37.0012C134.385 36.2225 134.209 35.3905 134.209 34.5052C134.209 33.7159 134.337 32.9265 134.593 32.1372C134.86 31.3479 135.228 30.6332 135.697 29.9932C136.177 29.3425 136.748 28.8252 137.409 28.4412C138.081 28.0465 138.822 27.8492 139.633 27.8492C139.878 27.8492 140.134 27.8705 140.401 27.9132C141.361 28.0839 142.049 28.4359 142.465 28.9692C142.892 29.4919 143.105 30.0732 143.105 30.7132C143.105 31.3319 142.945 31.9399 142.625 32.5372C142.305 33.1345 141.873 33.6305 141.329 34.0252C140.785 34.4199 140.177 34.6172 139.505 34.6172C138.961 34.6172 138.39 34.4519 137.793 34.1212C137.75 34.0999 137.702 34.0732 137.649 34.0412C137.606 34.0092 137.558 33.9825 137.505 33.9612C137.462 33.9292 137.42 33.9132 137.377 33.9132C137.292 33.9132 137.249 34.0785 137.249 34.4092C137.249 35.0599 137.494 35.5985 137.985 36.0252C138.486 36.4519 139.11 36.6652 139.857 36.6652C140.593 36.6652 141.334 36.4519 142.081 36.0252C142.262 35.9292 142.438 35.8439 142.609 35.7692C142.79 35.6945 142.998 35.6572 143.233 35.6572L143.441 35.6732C143.836 35.7159 144.129 35.8332 144.321 36.0252C144.513 36.2065 144.609 36.4252 144.609 36.6812C144.609 37.0652 144.412 37.4865 144.017 37.9452C143.633 38.4039 143.084 38.7932 142.369 39.1132C141.654 39.4332 140.817 39.5932 139.857 39.5932ZM139.473 32.3612C139.537 32.3612 139.622 32.3345 139.729 32.2812C140.049 32.1212 140.284 31.9345 140.433 31.7212C140.582 31.5079 140.657 31.2999 140.657 31.0972C140.657 30.8945 140.593 30.7239 140.465 30.5852C140.337 30.4359 140.15 30.3612 139.905 30.3612C139.542 30.3612 139.148 30.5319 138.721 30.8732C138.305 31.2145 138.097 31.4759 138.097 31.6572C138.097 31.7425 138.156 31.7905 138.273 31.8012C138.636 31.8332 138.924 31.9559 139.137 32.1692C139.254 32.2972 139.366 32.3612 139.473 32.3612Z" fill="black"/>
<path d="M40.4889 43.9471C34.469 48.0476 26.2356 46.4856 22.1356 40.4665C18.0355 34.4474 19.5963 26.2138 25.6162 22.1132C31.636 18.0126 39.8694 19.5747 43.9694 25.5938C48.0695 31.6128 46.5079 39.847 40.4889 43.9471ZM26.153 22.9013C20.568 26.7057 19.1201 34.3441 22.9245 39.9291C26.7289 45.5141 34.3678 46.9628 39.952 43.159C45.5363 39.3551 46.9857 31.7156 43.1813 26.1306C39.377 20.5456 31.738 19.0969 26.153 22.9013Z" fill="#CDCDCD"/>
<path d="M42.3491 24.212L41.9514 24.2123C41.5809 24.2124 41.2488 24.1703 40.9953 24.1236C41.031 23.8674 41.1332 23.4216 41.2135 23.119L41.3155 22.7347L40.9289 22.8264C40.4857 22.9316 40.0813 22.9604 39.8348 22.9657L39.8281 22.9442C39.7765 22.7883 39.7556 22.1569 39.7564 21.7574L39.7573 21.3601L39.4061 21.547C39.1143 21.7026 38.8316 21.8133 38.6077 21.8885C38.6389 21.5638 38.6877 21.2316 38.6892 21.2271L38.7476 20.8339L38.3739 20.9679C37.9154 21.1325 37.4927 21.2044 37.2496 21.2347C37.1889 20.8703 37.1479 20.3878 37.1475 20.3824L37.1131 19.9864L36.7799 20.2031C36.5655 20.3423 36.3548 20.4552 36.1683 20.5435C36.3113 19.8255 36.365 19.2819 36.3304 18.9258C36.2352 17.9517 36.1501 15.709 36.1368 15.3474C36.1492 15.2105 36.113 14.9487 35.7215 14.7243C35.488 14.5901 35.1754 14.4984 34.84 14.4666C34.3679 14.421 33.9296 14.5002 33.6679 14.6784C33.553 14.7567 33.4722 14.8549 33.4311 14.9648C33.2846 15.1703 33.0164 15.6644 33.1183 16.4214C33.1664 16.774 33.2651 17.1626 33.3696 17.5746C33.5309 18.2103 33.6983 18.8682 33.6602 19.3613C33.6369 19.6591 33.5125 20.1758 33.2974 20.8645C33.1113 20.7014 32.7772 20.3345 32.561 20.0805L32.3026 19.778L32.158 20.1481C32.0145 20.5165 31.8401 20.8262 31.7036 21.043C31.4343 20.8128 31.138 20.5247 31.1345 20.5213L30.8498 20.2435L30.7395 20.6256C30.6426 20.9622 30.5178 21.2563 30.4077 21.4802C30.1318 21.3521 29.7232 21.1178 29.556 21.0191L29.2139 20.8157L29.196 21.2132C29.1806 21.5511 29.131 21.8554 29.0787 22.0956C28.7378 21.9857 28.3425 21.8276 28.338 21.8261L27.9691 21.6783L28.0132 22.0735C28.0587 22.479 28.0467 22.8452 28.0266 23.0976C27.7742 23.0809 27.3012 23.0006 26.9834 22.9363L26.5941 22.8571L26.7079 23.2377C26.8235 23.6227 26.8774 23.9805 26.9017 24.2299C26.6568 24.2558 26.1567 24.2509 25.822 24.2367L25.4249 24.2196L25.5976 24.5782C25.7879 24.9727 25.9019 25.3486 25.9624 25.5927C25.6994 25.6104 25.267 25.6048 24.9678 25.5927L24.5708 25.5755L24.7437 25.9329C24.9606 26.3831 25.0771 26.8028 25.1305 27.0381C24.8838 27.0947 24.4078 27.1552 24.0836 27.185L23.6879 27.2216L23.907 27.5532C24.1477 27.9166 24.3103 28.272 24.404 28.5048C24.1886 28.5856 23.6667 28.7024 23.3203 28.7679L22.9297 28.8418L23.1793 29.1515C23.4589 29.4987 23.6549 29.8415 23.7697 30.0668C23.5255 30.1854 23.0893 30.3495 22.8208 30.4426L22.4453 30.5722L22.737 30.8419C23.0029 31.087 23.2152 31.3403 23.3633 31.5361C23.0857 31.6592 22.7002 31.7991 22.5373 31.8554L22.1618 31.985L22.4535 32.2547C22.7838 32.5594 23.0314 32.8761 23.1744 33.0777C22.8351 33.227 22.3689 33.3888 22.3632 33.3904L21.9877 33.52L22.2794 33.7897C22.5516 34.0407 22.7665 34.2979 22.9202 34.5035C22.8337 34.575 22.6883 34.6853 22.4453 34.8509C22.2465 34.9863 22.0797 35.0919 22.0782 35.093L21.7423 35.3058L22.0888 35.5007C22.4847 35.7232 22.801 35.9772 22.9869 36.1416L22.9777 36.1615C22.9088 36.3107 22.4956 36.7888 22.2244 37.0815L21.9535 37.373L22.338 37.4736C22.6581 37.558 22.9401 37.6683 23.1563 37.7654C22.913 37.9823 22.6506 38.1928 22.6473 38.1962L22.3371 38.4451L22.7031 38.6004C23.0904 38.7651 23.4095 38.9615 23.622 39.1066C23.4893 39.3289 23.2188 39.6996 23.0256 39.9482L22.7815 40.2623L23.1738 40.3293C23.5105 40.3864 23.81 40.4756 24.0357 40.555C23.9953 40.761 23.789 41.2925 23.6428 41.6319L23.4857 41.997L23.8817 41.9626C24.2363 41.9324 24.5605 41.9446 24.8047 41.9659C24.6847 42.1953 24.4374 42.5798 24.2594 42.8375L24.0336 43.1652L24.4288 43.2097C24.7969 43.2511 25.1226 43.3304 25.3688 43.4049C25.3044 43.6557 25.1523 44.0866 25.0388 44.3788L24.8947 44.7497L25.2893 44.7015C25.7406 44.6464 26.1457 44.6638 26.3924 44.6855L26.397 44.7074C26.4307 44.8686 26.381 45.4981 26.3349 45.8944L26.2891 46.2894L26.6589 46.1432C26.9667 46.021 27.2602 45.9428 27.4908 45.8925C27.4236 46.2111 27.337 46.5361 27.3367 46.5408L27.2348 46.9251L27.6213 46.8335C28.0318 46.7369 28.4062 46.7058 28.6615 46.6967C28.6857 46.9542 28.6885 47.4138 28.6796 47.7279L28.6692 48.1249L29.0242 47.9467C29.409 47.754 29.7742 47.6359 30.0229 47.5688C30.1131 47.7847 30.2503 48.2949 30.3293 48.6344L30.4194 49.022L30.718 48.7595C30.9533 48.5526 31.2273 48.3557 31.507 48.189L31.5147 48.1952C31.6408 48.3003 31.9952 48.8239 32.207 49.1616L32.4175 49.499L32.6155 49.1538C32.773 48.8794 32.9448 48.6442 33.0863 48.4683L33.0918 48.4713C33.239 48.5439 33.7042 48.9715 33.9884 49.2519L34.2708 49.5313L34.3837 49.1498C34.4422 48.9519 34.5163 48.7503 34.6034 48.5511C34.8105 48.6215 35.3012 48.8829 35.6149 49.0648L35.9593 49.2633L35.9718 48.866C35.9748 48.7537 35.983 48.639 35.9944 48.5221C36.2373 48.6283 36.6027 48.8193 36.855 48.9612L37.2014 49.156L37.2092 48.7586C37.2155 48.4508 37.2515 48.1682 37.2912 47.9445C37.4767 47.9898 38.014 48.2513 38.3525 48.4311L38.7032 48.6173L38.7021 48.2202C38.7014 47.882 38.7369 47.5736 38.7749 47.3408C39.0668 47.4773 39.3555 47.6307 39.3592 47.6328L39.7105 47.8198L39.7094 47.4227C39.7083 47.0005 39.7619 46.6287 39.8128 46.3746C40.1144 46.4136 40.5811 46.5163 40.7707 46.561L41.157 46.6525L41.0555 46.2682C40.9615 45.9116 40.9183 45.5795 40.899 45.3358C41.2027 45.3562 41.6113 45.4121 41.781 45.4375L42.174 45.4971L42.0415 45.1225C41.9919 44.9812 41.9467 44.8347 41.9084 44.6834L42.0017 44.7085L41.9127 44.3225C41.9099 44.3118 41.9077 44.3019 41.9058 44.2908C42.268 44.3168 42.7195 44.3822 42.7247 44.3832L43.1182 44.4402L42.9829 44.0663C42.85 43.6976 42.7759 43.3536 42.7364 43.1021C42.8635 43.0984 42.949 43.0971 42.9503 43.0973L43.3474 43.0928L43.3405 43.0793C43.5012 43.1017 43.6173 43.1204 43.6186 43.1206L44.0117 43.1836L43.8821 42.8082C43.7249 42.3537 43.6579 41.9367 43.6296 41.6866C43.8009 41.6176 44.4006 41.5251 44.7843 41.4809L45.1791 41.4347L44.9523 41.1084C44.6583 40.6869 44.4731 40.2731 44.3856 40.053C44.6584 39.9195 45.1062 39.7475 45.2929 39.6794L45.6662 39.5433L45.3697 39.2781C45.072 39.0114 44.8392 38.7346 44.6908 38.5402L44.6923 38.5391C44.7911 38.4071 45.2975 38.0291 45.6246 37.8018L45.9515 37.5757L45.5979 37.3937C45.3692 37.2766 45.1417 37.1361 44.9209 36.9773L44.8616 36.9302C44.8169 36.8947 44.7731 36.8586 44.7289 36.8205C44.9913 36.6668 45.4712 36.4501 45.6539 36.3712L46.0192 36.2133L45.7077 35.9662C45.3657 35.6945 45.1028 35.4086 44.9414 35.2151C45.2153 34.9796 45.5642 34.7192 45.5688 34.716L45.8878 34.4783L45.5283 34.3094C45.3241 34.2132 45.121 34.1003 44.9222 33.972C45.0602 33.7507 45.3297 33.3921 45.522 33.152L45.7708 32.8415L45.3803 32.7688C45.0628 32.71 44.7785 32.6229 44.5598 32.5456C44.7981 32.2946 45.0816 32.0299 45.0857 32.026L45.3759 31.7544L44.9999 31.6263C44.6017 31.4906 44.2685 31.3186 44.0463 31.1892C44.1618 30.9582 44.4049 30.5675 44.5789 30.3058L44.7992 29.975L44.4041 29.9372C44.0853 29.9065 43.797 29.8471 43.5658 29.7864C43.7137 29.5879 44.0509 29.2252 44.2857 28.9891L44.5664 28.707L44.1856 28.5935C43.7875 28.4748 43.4503 28.3168 43.2285 28.1997C43.3103 27.9677 43.5299 27.5192 43.6869 27.2224L43.8732 26.8716L43.4753 26.8733C43.1579 26.8746 42.8676 26.8439 42.6429 26.8094C42.657 26.6065 42.8054 26.045 42.9139 25.687L43.0286 25.3064L42.6386 25.3846C42.3083 25.4504 42.0018 25.4761 41.7565 25.483L41.8185 25.2771L41.8094 25.2787C41.9134 25.0476 42.0557 24.7642 42.1667 24.5568L42.3542 24.2062L42.3491 24.212Z" fill="#CBCBCB"/>
<path d="M32.3704 13.2888C32.3704 13.2888 31.9023 13.7748 32.0262 14.6942C32.15 15.6135 32.6534 16.8882 32.5853 17.7712C32.5173 18.6542 31.7038 20.8259 31.7038 20.8259L32.7156 22.3112L34.0902 21.2453C34.0902 21.2453 34.9531 18.4454 34.8435 17.3299C34.7339 16.2144 34.6403 13.5455 34.6403 13.5455L32.3704 13.2888Z" fill="#433709"/>
<path d="M33.2641 13.3934C33.2845 13.9274 33.5385 16.1324 33.6344 17.106C33.7441 18.2215 32.8811 21.0214 32.8811 21.0214L31.9727 21.5436L32.4799 22.2882L33.8545 21.2223C33.8545 21.2223 34.7175 18.4224 34.6079 17.3069C34.4982 16.1914 34.4046 13.5225 34.4046 13.5225L33.2654 13.3936L33.2641 13.3934Z" fill="#261C02"/>
<path d="M34.6458 13.6011C34.6177 13.8919 34.0732 14.0787 33.4305 14.0163C32.787 13.9544 32.2891 13.6673 32.3166 13.3757C32.3447 13.0849 32.8893 12.8981 33.532 12.9605C34.1755 13.0223 34.6734 13.3095 34.6458 13.6011Z" fill="#FCD3B3"/>
<path d="M31.9275 19.6715C31.9275 19.6715 27.4836 19.6976 24.1079 25.6323C20.733 31.5665 21.2807 36.5474 23.5871 40.8328C25.8927 45.1187 28.5357 47.2048 32.6211 47.507C36.7058 47.8097 43.3278 41.4824 43.3209 37.1051C43.3121 31.4751 41.7861 26.3729 40.1981 23.9966C38.6102 21.6204 36.3974 20.503 35.2555 20.0531C34.1149 19.6036 32.891 19.529 32.891 19.529L31.9283 19.671L31.9275 19.6715Z" fill="#4B5B19"/>
<path d="M29.5723 19.1212C29.5723 19.1212 30.3072 19.838 30.5635 19.9624L30.8191 20.0873L30.3184 21.066C30.3184 21.066 29.6269 20.4447 29.6382 20.4245C29.6494 20.4043 29.5715 19.1218 29.5715 19.1218L29.5723 19.1212Z" fill="#6B7B3E"/>
<path d="M29.5713 19.1212C29.3442 19.9091 28.9754 20.4775 28.9754 20.4775L30.318 21.0668L29.5719 19.122L29.5713 19.1212Z" fill="#4B5B19"/>
<path d="M27.9945 19.668C27.9945 19.668 28.8766 20.1936 29.155 20.2552L29.4334 20.3168L29.1746 21.3854C29.1746 21.3854 28.3574 20.9417 28.3637 20.9192C28.37 20.8968 27.9953 19.6675 27.9953 19.6675L27.9945 19.668Z" fill="#6B7B3E"/>
<path d="M27.9947 19.668C27.957 20.4871 27.7317 21.126 27.7317 21.126L29.1748 21.3854L27.9947 19.668Z" fill="#4B5B19"/>
<path d="M26.775 20.5141C26.775 20.5141 27.7291 20.8952 28.0126 20.9124L28.2973 20.9299L28.2092 22.0255C28.2092 22.0255 27.3329 21.7153 27.3353 21.6921C27.3377 21.6689 26.7758 20.5136 26.7758 20.5136L26.775 20.5141Z" fill="#6B7B3E"/>
<path d="M26.7757 20.5141C26.8672 21.3293 26.7436 21.9955 26.7436 21.9955L28.2091 22.026L26.7749 20.5146L26.7757 20.5141Z" fill="#4B5B19"/>
<path d="M23.3887 24.4055C23.3887 24.4055 24.415 24.4487 24.6886 24.3714L24.963 24.2937L25.2436 25.3564C25.2436 25.3564 24.3136 25.3544 24.3084 25.3318C24.3032 25.3092 23.39 24.4058 23.39 24.4058L23.3887 24.4055Z" fill="#6B7B3E"/>
<path d="M23.3889 24.4056C23.7452 25.1439 23.8501 25.8135 23.8501 25.8135L25.2433 25.3556L23.3897 24.405L23.3889 24.4056Z" fill="#4B5B19"/>
<path d="M24.2695 23.011C24.2695 23.011 25.2958 23.0542 25.5695 22.9769L25.8439 22.8991L26.1244 23.9618C26.1244 23.9618 25.1944 23.9599 25.1892 23.9373C25.1841 23.9147 24.2708 23.0112 24.2708 23.0112L24.2695 23.011Z" fill="#6B7B3E"/>
<path d="M24.2698 23.011C24.6261 23.7493 24.731 24.419 24.731 24.419L26.1241 23.9611L24.2706 23.0105L24.2698 23.011Z" fill="#4B5B19"/>
<path d="M25.4238 21.6689C25.4238 21.6689 26.4304 21.8734 26.7133 21.8398L26.9962 21.8062L27.1059 22.9001C27.1059 22.9001 26.1874 22.7516 26.1864 22.7284C26.1854 22.7052 25.4251 21.6692 25.4251 21.6692L25.4238 21.6689Z" fill="#6B7B3E"/>
<path d="M25.4241 21.669C25.66 22.4541 25.6571 23.1324 25.6571 23.1324L27.1049 22.8999L25.4241 21.669Z" fill="#4B5B19"/>
<path d="M31.0235 18.6517C31.0235 18.6517 31.69 19.4333 31.9333 19.5802L32.1771 19.7278L31.5886 20.6561C31.5886 20.6561 30.9574 19.9732 30.9705 19.954C30.9836 19.9349 31.0237 18.6504 31.0237 18.6504L31.0235 18.6517Z" fill="#6B7B3E"/>
<path d="M31.0235 18.6516C30.7252 19.4152 30.3052 19.9468 30.3052 19.9468L31.5878 20.6566L31.0229 18.6508L31.0235 18.6516Z" fill="#4B5B19"/>
<path d="M20.9785 30.8369C20.9785 30.8369 21.9489 30.501 22.175 30.3288L22.4018 30.1562L23.0519 31.0422C23.0519 31.0422 22.1857 31.3809 22.173 31.3623C22.1603 31.3437 20.9785 30.8369 20.9785 30.8369Z" fill="#6B7B3E"/>
<path d="M20.9785 30.8369C21.5803 31.3932 21.923 31.9782 21.923 31.9782L23.0519 31.0422L20.9785 30.8369Z" fill="#4B5B19"/>
<path d="M21.2715 29.3831C21.2715 29.3831 22.2419 29.0471 22.4679 28.875L22.6947 28.7023L23.3449 29.5883C23.3449 29.5883 22.4787 29.9271 22.466 29.9084C22.4533 29.8898 21.2715 29.3831 21.2715 29.3831Z" fill="#6B7B3E"/>
<path d="M21.2715 29.3831C21.8732 29.9394 22.216 30.5243 22.216 30.5243L23.3449 29.5883L21.2715 29.3831Z" fill="#4B5B19"/>
<path d="M21.7508 27.6694C21.7508 27.6694 22.7604 27.4795 23.009 27.3421L23.2583 27.2041L23.7717 28.1764C23.7717 28.1764 22.8654 28.3845 22.855 28.3643C22.8454 28.3435 21.75 27.6699 21.75 27.6699L21.7508 27.6694Z" fill="#6B7B3E"/>
<path d="M21.7508 27.6694C22.2653 28.3079 22.5186 28.9368 22.5186 28.9368L23.7717 28.1764L21.7508 27.6694Z" fill="#4B5B19"/>
<path d="M22.5117 26.0439C22.5117 26.0439 23.5346 25.9485 23.7948 25.8349L24.0558 25.7208L24.4771 26.7365C24.4771 26.7365 23.5551 26.8598 23.5471 26.838C23.5391 26.8162 22.5117 26.0439 22.5117 26.0439Z" fill="#6B7B3E"/>
<path d="M22.5126 26.0439C22.965 26.7281 23.1591 27.3768 23.1591 27.3768L24.4775 26.7356L22.5126 26.0439Z" fill="#4B5B19"/>
<path d="M20.7988 32.4167C20.7988 32.4167 21.7693 32.0808 21.9953 31.9087L22.2221 31.736L22.8722 32.622C22.8722 32.622 22.006 32.9608 21.9934 32.9421C21.9807 32.9235 20.7988 32.4167 20.7988 32.4167Z" fill="#6B7B3E"/>
<path d="M20.7988 32.4167C21.4006 32.9731 21.7433 33.558 21.7433 33.558L22.8722 32.622L20.7988 32.4167Z" fill="#4B5B19"/>
<path d="M20.5568 34.1445C20.5568 34.1445 21.4232 33.5941 21.6037 33.3734L21.7842 33.1527L22.6215 33.8646C22.6215 33.8646 21.857 34.3944 21.8397 34.3789C21.8223 34.3635 20.5563 34.1437 20.5563 34.1437L20.5568 34.1445Z" fill="#6B7B3E"/>
<path d="M20.5566 34.1445C21.2707 34.547 21.7397 35.0369 21.7397 35.0369L22.6218 33.8654L20.5574 34.144L20.5566 34.1445Z" fill="#4B5B19"/>
<path d="M20.7545 36.1502C20.7545 36.1502 21.4542 35.3985 21.5722 35.1396L21.6916 34.8809L22.6816 35.3581C22.6816 35.3581 22.0758 36.064 22.0556 36.0528C22.0347 36.042 20.7545 36.1502 20.7545 36.1502Z" fill="#6B7B3E"/>
<path d="M20.7539 36.1501C21.5466 36.3593 22.1237 36.7142 22.1237 36.7142L22.6811 35.358L20.7539 36.1501Z" fill="#4B5B19"/>
<path d="M21.1642 37.3212C21.1642 37.3212 21.965 36.6779 22.1198 36.4395L22.2745 36.2011L23.1849 36.8166C23.1849 36.8166 22.4835 37.4274 22.4651 37.4137C22.4467 37.4001 21.1634 37.3217 21.1634 37.3217L21.1642 37.3212Z" fill="#6B7B3E"/>
<path d="M21.1648 37.3212C21.9193 37.6428 22.4385 38.078 22.4385 38.078L23.1855 36.8167L21.1641 37.3218L21.1648 37.3212Z" fill="#4B5B19"/>
<path d="M21.5931 39.0835C21.5931 39.0835 22.2234 38.2733 22.319 38.0048L22.4145 37.7362L23.443 38.1246C23.443 38.1246 22.902 38.8807 22.8801 38.8718C22.8589 38.8624 21.5926 39.0827 21.5926 39.0827L21.5931 39.0835Z" fill="#6B7B3E"/>
<path d="M21.5945 39.0835C22.4027 39.2218 23.0084 39.5254 23.0084 39.5254L23.4442 38.1259L21.5938 39.084L21.5945 39.0835Z" fill="#4B5B19"/>
<path d="M22.2602 40.7616C22.2602 40.7616 22.6656 39.8182 22.6904 39.5342L22.7152 39.2502L23.8082 39.3662C23.8082 39.3662 23.4758 40.2349 23.4528 40.2312C23.4298 40.2275 22.2605 40.7603 22.2605 40.7603L22.2602 40.7616Z" fill="#6B7B3E"/>
<path d="M22.2602 40.7617C23.0775 40.6916 23.74 40.8314 23.74 40.8314L23.8074 39.3668L22.2597 40.761L22.2602 40.7617Z" fill="#4B5B19"/>
<path d="M22.8718 42.0452C22.8718 42.0452 23.4541 41.1996 23.5342 40.9268L23.6144 40.6539L24.6636 40.9827C24.6636 40.9827 24.167 41.7689 24.1447 41.7613C24.1225 41.7537 22.8715 42.0466 22.8715 42.0466L22.8718 42.0452Z" fill="#6B7B3E"/>
<path d="M22.8711 42.0452C23.6861 42.1368 24.3081 42.4042 24.3081 42.4042L24.6624 40.9819L22.8711 42.0452Z" fill="#4B5B19"/>
<path d="M23.6995 43.5802C23.6995 43.5802 24.0717 42.6231 24.0863 42.3391L24.1009 42.0552L25.1972 42.1326C25.1972 42.1326 24.8951 43.0125 24.8727 43.0096C24.8494 43.0072 23.6995 43.5802 23.6995 43.5802Z" fill="#6B7B3E"/>
<path d="M23.6989 43.5803C24.5127 43.4817 25.1802 43.5989 25.1802 43.5989L25.1965 42.1327L23.6989 43.5803Z" fill="#4B5B19"/>
<path d="M25.048 45.0782C25.048 45.0782 25.1658 44.0579 25.1078 43.7791L25.0498 43.5004L26.1307 43.2983C26.1307 43.2983 26.061 44.2256 26.0381 44.2287C26.0152 44.2318 25.0475 45.0774 25.0475 45.0774L25.048 45.0782Z" fill="#6B7B3E"/>
<path d="M25.0475 45.0782C25.8106 44.7767 26.4852 44.7207 26.4852 44.7207L26.1302 43.2983L25.0475 45.0782Z" fill="#4B5B19"/>
<path d="M26.0731 45.7788C26.0731 45.7788 26.3371 44.7862 26.3199 44.5023L26.3035 44.2179L27.4025 44.1741C27.4025 44.1741 27.1999 45.0817 27.1762 45.0819C27.1533 45.0816 26.0731 45.7788 26.0731 45.7788Z" fill="#6B7B3E"/>
<path d="M26.0739 45.7788C26.8722 45.5908 27.5478 45.633 27.5478 45.633L27.4019 44.174L26.0733 45.7781L26.0739 45.7788Z" fill="#4B5B19"/>
<path d="M27.4618 46.9443C27.4618 46.9443 27.4901 45.9179 27.4079 45.6454L27.3257 45.3729L28.3846 45.0767C28.3846 45.0767 28.3963 46.0066 28.3742 46.0125C28.3516 46.0177 27.4623 46.9451 27.4623 46.9451L27.4618 46.9443Z" fill="#6B7B3E"/>
<path d="M27.4618 46.9443C28.1948 46.5769 28.8623 46.4621 28.8623 46.4621L28.3841 45.0759L27.4618 46.9443Z" fill="#4B5B19"/>
<path d="M43.0953 27.4929C43.0953 27.4929 42.3717 28.2211 42.2442 28.4762L42.1175 28.7307L41.1439 28.2208C41.1439 28.2208 41.7728 27.5355 41.7922 27.5473C41.8124 27.5586 43.0953 27.4929 43.0953 27.4929Z" fill="#6B7B3E"/>
<path d="M43.096 27.4928C42.3101 27.2585 41.7456 26.8837 41.7456 26.8837L41.1445 28.2207L43.0967 27.4922L43.096 27.4928Z" fill="#4B5B19"/>
<path d="M42.4366 25.7329C42.4366 25.7329 41.9555 26.6403 41.9082 26.9214L41.8605 27.2018L40.7809 26.997C40.7809 26.997 41.1827 26.1584 41.2054 26.1634C41.2282 26.1684 42.4366 25.7329 42.4366 25.7329Z" fill="#6B7B3E"/>
<path d="M42.4363 25.7328C41.616 25.7368 40.9665 25.5426 40.9665 25.5426L40.7793 26.9967L42.4349 25.7325L42.4363 25.7328Z" fill="#4B5B19"/>
<path d="M41.6252 24.1959C41.6252 24.1959 41.3286 25.1789 41.3356 25.4628L41.3431 25.7475L40.2438 25.7541C40.2438 25.7541 40.4774 24.8538 40.4996 24.8546C40.5225 24.8549 41.6247 24.1951 41.6247 24.1951L41.6252 24.1959Z" fill="#6B7B3E"/>
<path d="M41.6243 24.196C40.8202 24.3572 40.1462 24.2923 40.1462 24.2923L40.2426 25.7555L41.6243 24.196Z" fill="#4B5B19"/>
<path d="M40.9678 25.5606C40.9678 25.5606 40.6712 26.5436 40.6774 26.828L40.6849 27.1128L39.5856 27.1193C39.5856 27.1193 39.8192 26.219 39.8414 26.2199C39.8643 26.2202 40.9665 25.5603 40.9665 25.5603L40.9678 25.5606Z" fill="#6B7B3E"/>
<path d="M40.968 25.5605C40.1639 25.7217 39.49 25.6568 39.49 25.6568L39.5864 27.12L40.968 25.5605Z" fill="#4B5B19"/>
<path d="M41.1045 26.9163C41.1045 26.9163 40.8079 27.8993 40.8141 28.1838L40.8216 28.4685L39.7223 28.475C39.7223 28.475 39.9559 27.5748 39.9781 27.5756C40.001 27.5759 41.1032 26.916 41.1032 26.916L41.1045 26.9163Z" fill="#6B7B3E"/>
<path d="M41.1047 26.9162C40.3006 27.0774 39.6267 27.0125 39.6267 27.0125L39.7231 28.4757L41.1047 26.9162Z" fill="#4B5B19"/>
<path d="M41.3506 28.1026C41.3506 28.1026 41.054 29.0856 41.0602 29.3701L41.0677 29.6548L39.9684 29.6613C39.9684 29.6613 40.202 28.761 40.225 28.7613C40.2479 28.7616 41.3501 28.1018 41.3501 28.1018L41.3506 28.1026Z" fill="#6B7B3E"/>
<path d="M41.3508 28.1025C40.5467 28.2637 39.8728 28.1988 39.8728 28.1988L39.9692 29.662L41.3508 28.1025Z" fill="#4B5B19"/>
<path d="M40.3799 24.1636C40.3799 24.1636 40.0833 25.1466 40.0895 25.4311L40.097 25.7158L38.9977 25.7224C38.9977 25.7224 39.2313 24.8221 39.2543 24.8224C39.2772 24.8227 40.3794 24.1628 40.3794 24.1628L40.3799 24.1636Z" fill="#6B7B3E"/>
<path d="M40.3801 24.1635C39.576 24.3248 38.9021 24.2598 38.9021 24.2598L38.9985 25.723L40.3801 24.1635Z" fill="#4B5B19"/>
<path d="M39.5108 22.9873C39.5108 22.9873 39.2141 23.9703 39.2203 24.2548L39.2279 24.5396L38.1286 24.5461C38.1286 24.5461 38.3622 23.6458 38.3851 23.6461C38.408 23.6464 39.5102 22.9866 39.5102 22.9866L39.5108 22.9873Z" fill="#6B7B3E"/>
<path d="M39.511 22.9872C38.7069 23.1485 38.0329 23.0836 38.0329 23.0836L38.1293 24.5468L39.511 22.9872Z" fill="#4B5B19"/>
<path d="M40.8721 22.9887C40.8721 22.9887 40.3874 23.8941 40.3388 24.175L40.2898 24.4551L39.2105 24.2457C39.2105 24.2457 39.6159 23.4091 39.6386 23.414C39.6614 23.419 40.8721 22.9887 40.8721 22.9887Z" fill="#6B7B3E"/>
<path d="M40.8725 22.9886C40.0522 22.9893 39.404 22.7919 39.404 22.7919L39.2108 24.2455L40.8725 22.9886Z" fill="#4B5B19"/>
<path d="M39.8756 21.557C39.8756 21.557 39.6129 22.5498 39.6301 22.8337L39.6472 23.1176L38.5486 23.1634C38.5486 23.1634 38.7498 22.2557 38.7735 22.2554C38.7964 22.2557 39.8756 21.557 39.8756 21.557Z" fill="#6B7B3E"/>
<path d="M39.8756 21.557C39.0783 21.7466 38.4019 21.7049 38.4019 21.7049L38.5499 23.1637L39.8756 21.557Z" fill="#4B5B19"/>
<path d="M38.369 20.2188C38.369 20.2188 38.3662 21.246 38.4549 21.5164L38.5436 21.7868L37.492 22.1087C37.492 22.1087 37.4572 21.1798 37.48 21.1733C37.5021 21.1673 38.369 20.2188 38.369 20.2188Z" fill="#6B7B3E"/>
<path d="M38.3697 20.2188C37.6455 20.6042 36.981 20.7351 36.981 20.7351L37.4927 22.1087L38.3697 20.2188Z" fill="#4B5B19"/>
<path d="M37.2718 19.637C37.2718 19.637 37.1204 20.653 37.1693 20.9334L37.2182 21.2138L36.1312 21.3802C36.1312 21.3802 36.2314 20.456 36.2543 20.4529C36.2772 20.4498 37.2718 19.637 37.2718 19.637Z" fill="#6B7B3E"/>
<path d="M37.2726 19.6371C36.5007 19.914 35.8238 19.9466 35.8238 19.9466L36.132 21.3803L37.2726 19.6371Z" fill="#4B5B19"/>
<path d="M35.6863 18.8257C35.6863 18.8257 35.7736 19.8484 35.8854 20.1109L35.9975 20.3722L34.9786 20.7855C34.9786 20.7855 34.8628 19.8629 34.8846 19.8549C34.9064 19.8469 35.6863 18.8257 35.6863 18.8257Z" fill="#6B7B3E"/>
<path d="M35.6846 18.8256C34.9972 19.2734 34.3469 19.4618 34.3469 19.4618L34.9777 20.7849L35.6854 18.8251L35.6846 18.8256Z" fill="#4B5B19"/>
<path d="M43.7563 40.2709C43.7563 40.2709 42.7362 40.3906 42.4782 40.5107L42.2201 40.6308L41.7752 39.6255C41.7752 39.6255 42.6938 39.4805 42.7026 39.5018C42.7114 39.5231 43.7563 40.2709 43.7563 40.2709Z" fill="#6B7B3E"/>
<path d="M43.7565 40.271C43.2878 39.5979 43.0786 38.9537 43.0786 38.9537L41.7754 39.6255L43.7565 40.271Z" fill="#4B5B19"/>
<path d="M44.2249 38.4306C44.2249 38.4306 43.2596 38.7824 43.0367 38.9592L42.8133 39.1352L42.1484 38.2593C42.1484 38.2593 43.0085 37.9065 43.0219 37.9246C43.0352 37.944 44.2251 38.4293 44.2251 38.4293L44.2249 38.4306Z" fill="#6B7B3E"/>
<path d="M44.224 38.4306C43.613 37.884 43.2609 37.3054 43.2609 37.3054L42.1481 38.2601L44.224 38.4306Z" fill="#4B5B19"/>
<path d="M44.5112 36.5281C44.5112 36.5281 43.6668 37.1124 43.4953 37.3395L43.3237 37.5667L42.4591 36.8881C42.4591 36.8881 43.2022 36.3286 43.2196 36.344C43.2377 36.359 44.5112 36.5281 44.5112 36.5281Z" fill="#6B7B3E"/>
<path d="M44.5104 36.5282C43.7807 36.1545 43.2934 35.6828 43.2934 35.6828L42.4583 36.8882L44.5104 36.5282Z" fill="#4B5B19"/>
<path d="M44.5833 35.0342C44.5833 35.0342 43.6407 35.441 43.4276 35.6305L43.2145 35.8199L42.5 34.9846C42.5 34.9846 43.3384 34.5817 43.3524 34.6006C43.3667 34.6182 44.5823 35.036 44.5823 35.036L44.5833 35.0342Z" fill="#6B7B3E"/>
<path d="M44.5829 35.0343C43.9413 34.5245 43.5555 33.9666 43.5555 33.9666L42.4999 34.9835L44.5824 35.0335L44.5829 35.0343Z" fill="#4B5B19"/>
<path d="M43.3716 34.6851C43.3716 34.6851 42.429 35.0919 42.2159 35.2814L42.0036 35.4703L41.2891 34.635C41.2891 34.635 42.1275 34.2321 42.1415 34.251C42.1557 34.2686 43.3713 34.6864 43.3713 34.6864L43.3716 34.6851Z" fill="#6B7B3E"/>
<path d="M43.372 34.6852C42.7298 34.1746 42.3446 33.6175 42.3446 33.6175L41.289 34.6343L43.372 34.6852Z" fill="#4B5B19"/>
<path d="M42.3704 33.615C42.3704 33.615 41.4278 34.0218 41.2147 34.2113L41.0016 34.4007L40.2871 33.5654C40.2871 33.5654 41.1255 33.1625 41.1395 33.1814C41.1538 33.199 42.3694 33.6168 42.3694 33.6168L42.3704 33.615Z" fill="#6B7B3E"/>
<path d="M42.37 33.6151C41.7284 33.1053 41.3426 32.5474 41.3426 32.5474L40.287 33.5643L42.3695 33.6144L42.37 33.6151Z" fill="#4B5B19"/>
<path d="M43.7122 36.0252C43.7122 36.0252 42.7696 36.4319 42.5565 36.6214L42.3434 36.8109L41.6289 35.9756C41.6289 35.9756 42.4673 35.5727 42.4813 35.5916C42.4953 35.6105 43.7112 36.027 43.7112 36.027L43.7122 36.0252Z" fill="#6B7B3E"/>
<path d="M43.713 36.0253C43.0713 35.5155 42.6864 34.9571 42.6864 34.9571L41.6308 35.9739L43.7132 36.024L43.713 36.0253Z" fill="#4B5B19"/>
<path d="M43.3052 37.6558C43.3052 37.6558 42.3626 38.0626 42.1495 38.2521L41.9372 38.441L41.2227 37.6057C41.2227 37.6057 42.0611 37.2028 42.0751 37.2217C42.0893 37.2393 43.3049 37.6571 43.3049 37.6571L43.3052 37.6558Z" fill="#6B7B3E"/>
<path d="M43.3048 37.6559C42.6626 37.1454 42.2782 36.5877 42.2782 36.5877L41.2226 37.6046L43.3056 37.6554L43.3048 37.6559Z" fill="#4B5B19"/>
<path d="M43.0755 39.1668C43.0755 39.1668 42.1329 39.5735 41.9198 39.763L41.7067 39.9525L40.9922 39.1172C40.9922 39.1172 41.8306 38.7143 41.8446 38.7332C41.8589 38.7508 43.0745 39.1686 43.0745 39.1686L43.0755 39.1668Z" fill="#6B7B3E"/>
<path d="M43.0763 39.1669C42.4346 38.6571 42.0497 38.0987 42.0497 38.0987L40.994 39.1155L43.0766 39.1656L43.0763 39.1669Z" fill="#4B5B19"/>
<path d="M44.4458 33.3604C44.4458 33.3604 43.6223 33.9736 43.4591 34.2064L43.296 34.4392L42.408 33.7914C42.408 33.7914 43.131 33.2057 43.1491 33.2206C43.1667 33.2348 44.4466 33.3598 44.4466 33.3598L44.4458 33.3604Z" fill="#6B7B3E"/>
<path d="M44.4464 33.3603C43.7045 33.012 43.2009 32.5581 43.2009 32.5581L42.4086 33.7913L44.4472 33.3597L44.4464 33.3603Z" fill="#4B5B19"/>
<path d="M44.3542 31.7949C44.3542 31.7949 43.7126 32.5969 43.6134 32.8634L43.5141 33.1299L42.491 32.7276C42.491 32.7276 43.0428 31.979 43.064 31.9884C43.0852 31.9978 44.3542 31.7949 44.3542 31.7949Z" fill="#6B7B3E"/>
<path d="M44.3528 31.7951C43.5467 31.6463 42.9453 31.3341 42.9453 31.3341L42.4909 32.728L44.3541 31.7953L44.3528 31.7951Z" fill="#4B5B19"/>
<path d="M43.9268 30.61C43.9268 30.61 43.1765 31.3109 43.0393 31.5601L42.9027 31.81L41.9487 31.264C41.9487 31.264 42.6022 30.6029 42.6221 30.6155C42.6415 30.6272 43.9268 30.61 43.9268 30.61Z" fill="#6B7B3E"/>
<path d="M43.9276 30.6099C43.1508 30.3456 42.6009 29.9506 42.6009 29.9506L41.9495 31.2639L43.9276 30.6099Z" fill="#4B5B19"/>
<path d="M43.3685 28.8848C43.3685 28.8848 42.7994 29.7397 42.725 30.0143L42.6493 30.2886L41.5953 29.9779C41.5953 29.9779 42.0785 29.1838 42.1002 29.1906C42.1225 29.1982 43.3685 28.8848 43.3685 28.8848Z" fill="#6B7B3E"/>
<path d="M43.3685 28.8847C42.5524 28.8063 41.9257 28.5489 41.9257 28.5489L41.5953 29.9778L43.3685 28.8847Z" fill="#4B5B19"/>
<path d="M42.6251 41.9597C42.6251 41.9597 41.6114 41.7966 41.3305 41.8413L41.0495 41.8861L40.8956 40.7974C40.8956 40.7974 41.8191 40.9083 41.8209 40.9309C41.8232 40.9543 42.6254 41.9584 42.6254 41.9584L42.6251 41.9597Z" fill="#6B7B3E"/>
<path d="M42.6244 41.9597C42.3568 41.1848 42.3318 40.5073 42.3318 40.5073L40.8945 40.7986L42.6244 41.9597Z" fill="#4B5B19"/>
<path d="M42.5924 29.1558C42.5924 29.1558 41.796 29.804 41.6423 30.0439L41.4886 30.2839L40.5739 29.6736C40.5739 29.6736 41.2714 29.0587 41.2905 29.0718C41.3097 29.0849 42.5924 29.1558 42.5924 29.1558Z" fill="#6B7B3E"/>
<path d="M42.5913 29.1558C41.8346 28.8392 41.3128 28.4069 41.3128 28.4069L40.5736 29.6731L42.5913 29.1558Z" fill="#4B5B19"/>
<path d="M42.1523 27.3963C42.1523 27.3963 41.5267 28.2101 41.4329 28.4797L41.3387 28.7485L40.3077 28.3664C40.3077 28.3664 40.8439 27.6067 40.8659 27.6156C40.8873 27.6237 42.1515 27.3969 42.1515 27.3969L42.1523 27.3963Z" fill="#6B7B3E"/>
<path d="M42.1521 27.3963C41.343 27.2631 40.7352 26.9633 40.7352 26.9633L40.3083 28.3658L42.1521 27.3963Z" fill="#4B5B19"/>
<path d="M41.8949 41.9324C41.8949 41.9324 40.8678 41.9431 40.5988 42.0355L40.3298 42.1278L39.9941 41.081C39.9941 41.081 40.9226 41.034 40.9293 41.0555C40.9353 41.0776 41.8957 41.9318 41.8957 41.9318L41.8949 41.9324Z" fill="#6B7B3E"/>
<path d="M41.8955 41.9325C41.5003 41.2138 41.3611 40.5505 41.3611 40.5505L39.9941 41.0803L41.8957 41.9311L41.8955 41.9325Z" fill="#4B5B19"/>
<path d="M42.5552 40.152C42.5552 40.152 41.5589 40.3999 41.3178 40.5516L41.0767 40.7033L40.5087 39.7625C40.5087 39.7625 41.4012 39.5024 41.4123 39.5221C41.4234 39.5418 42.5552 40.152 42.5552 40.152Z" fill="#6B7B3E"/>
<path d="M42.5547 40.152C42.004 39.5439 41.7159 38.9307 41.7159 38.9307L40.5081 39.7626L42.5547 40.152Z" fill="#4B5B19"/>
<path d="M43.0422 38.2908C43.0422 38.2908 42.1403 38.7824 41.9462 38.9897L41.7512 39.1975L40.9629 38.4307C40.9629 38.4307 41.7607 37.9531 41.7765 37.9697C41.7923 37.9862 43.0417 38.2901 43.0417 38.2901L43.0422 38.2908Z" fill="#6B7B3E"/>
<path d="M43.0414 38.2909C42.3558 37.8417 41.9209 37.3218 41.9209 37.3218L40.9626 38.4315L43.0414 38.2909Z" fill="#4B5B19"/>
<path d="M43.3001 36.9794C43.3001 36.9794 42.32 37.2845 42.0879 37.4494L41.8563 37.6151L41.2344 36.7087C41.2344 36.7087 42.1102 36.3975 42.1234 36.4169C42.1366 36.4363 43.3001 36.9794 43.3001 36.9794Z" fill="#6B7B3E"/>
<path d="M43.2992 36.9794C42.7152 36.4041 42.3914 35.8085 42.3914 35.8085L41.2335 36.7087L43.2992 36.9794Z" fill="#4B5B19"/>
<path d="M43.3399 35.2999C43.3399 35.2999 42.4563 35.8234 42.269 36.0373L42.0822 36.2521L41.2676 35.5134C41.2676 35.5134 42.0484 35.0077 42.065 35.0237C42.0816 35.0397 43.3407 35.2994 43.3407 35.2994L43.3399 35.2999Z" fill="#6B7B3E"/>
<path d="M43.3403 35.2999C42.6393 34.8749 42.1866 34.3705 42.1866 34.3705L41.268 35.5134L43.3403 35.2999Z" fill="#4B5B19"/>
<path d="M43.3866 33.567C43.3866 33.567 42.6635 34.296 42.5373 34.5513L42.4106 34.8059L41.4359 34.2978C41.4359 34.2978 42.0631 33.6115 42.0832 33.6227C42.1034 33.634 43.3866 33.567 43.3866 33.567Z" fill="#6B7B3E"/>
<path d="M43.3872 33.5669C42.6013 33.3327 42.0358 32.9597 42.0358 32.9597L41.436 34.297L43.3872 33.5669Z" fill="#4B5B19"/>
<path d="M43.0874 32.3442C43.0874 32.3442 42.2665 32.9613 42.1045 33.1957L41.9419 33.4292L41.051 32.7856C41.051 32.7856 41.7711 32.1973 41.7895 32.2109C41.8079 32.2246 43.0874 32.3442 43.0874 32.3442Z" fill="#6B7B3E"/>
<path d="M43.0874 32.3441C42.3434 31.9994 41.8381 31.5479 41.8381 31.5479L41.0509 32.7855L43.0866 32.3446L43.0874 32.3441Z" fill="#4B5B19"/>
<path d="M42.7147 30.5687C42.7147 30.5687 42.0592 31.3585 41.9547 31.624L41.8511 31.889L40.8356 31.4679C40.8356 31.4679 41.4009 30.7293 41.4214 30.7392C41.4426 30.7486 42.7153 30.5694 42.7153 30.5694L42.7147 30.5687Z" fill="#6B7B3E"/>
<path d="M42.7153 30.5687C41.9114 30.4048 41.3159 30.0829 41.3159 30.0829L40.8362 31.468L42.7153 30.5687Z" fill="#4B5B19"/>
<path d="M40.5919 43.4918C40.5919 43.4918 39.6011 43.2221 39.317 43.2372L39.0328 43.2523L38.995 42.1538C38.995 42.1538 39.9016 42.3616 39.9013 42.3845C39.901 42.4074 40.5914 43.4911 40.5914 43.4911L40.5919 43.4918Z" fill="#6B7B3E"/>
<path d="M40.591 43.4918C40.4072 42.6929 40.4536 42.0168 40.4536 42.0168L38.9941 42.1538L40.591 43.4918Z" fill="#4B5B19"/>
<path d="M40.6218 26.845C40.6218 26.845 39.9044 27.5792 39.7788 27.8353L39.6539 28.0908L38.6759 27.5896C38.6759 27.5896 39.2986 26.8983 39.3188 26.9096C39.3389 26.9209 40.6212 26.8442 40.6212 26.8442L40.6218 26.845Z" fill="#6B7B3E"/>
<path d="M40.6215 26.845C39.8339 26.6166 39.2655 26.2478 39.2655 26.2478L38.6757 27.5896L40.6215 26.845Z" fill="#4B5B19"/>
<path d="M39.9838 25.1473C39.9838 25.1473 39.4558 26.0276 39.3929 26.3057L39.3307 26.5834L38.2634 26.3214C38.2634 26.3214 38.7102 25.5055 38.7319 25.5124C38.7544 25.5186 39.9843 25.1481 39.9843 25.1481L39.9838 25.1473Z" fill="#6B7B3E"/>
<path d="M39.9845 25.1472C39.1659 25.1069 38.5275 24.879 38.5275 24.879L38.2629 26.3211L39.985 25.148L39.9845 25.1472Z" fill="#4B5B19"/>
<path d="M41.3905 39.6176C41.3905 39.6176 40.3716 39.7456 40.1144 39.8685L39.8579 39.991L39.4041 38.9894C39.4041 38.9894 40.3216 38.8361 40.3304 38.8574C40.3393 38.8787 41.3905 39.6176 41.3905 39.6176Z" fill="#6B7B3E"/>
<path d="M41.3912 39.6178C40.9163 38.9489 40.7022 38.3059 40.7022 38.3059L39.4043 38.9888L41.3907 39.617L41.3912 39.6178Z" fill="#4B5B19"/>
<path d="M41.8415 37.7744C41.8415 37.7744 40.8794 38.1342 40.6576 38.3126L40.4358 38.491L39.7637 37.6211C39.7637 37.6211 40.6205 37.2603 40.6345 37.2791C40.6477 37.2985 41.8415 37.7744 41.8415 37.7744Z" fill="#6B7B3E"/>
<path d="M41.8422 37.7743C41.226 37.2335 40.8687 36.6573 40.8687 36.6573L39.7644 37.621L41.8422 37.7743Z" fill="#4B5B19"/>
<path d="M42.1128 35.8691C42.1128 35.8691 41.2732 36.4603 41.104 36.6893L40.9348 36.9182L40.0648 36.2467C40.0648 36.2467 40.8029 35.6815 40.8205 35.6956C40.8386 35.7106 42.1134 35.8698 42.1134 35.8698L42.1128 35.8691Z" fill="#6B7B3E"/>
<path d="M42.1128 35.869C41.38 35.5008 40.8891 35.0338 40.8891 35.0338L40.0642 36.2459L42.1128 35.869Z" fill="#4B5B19"/>
<path d="M42.2184 34.5373C42.2184 34.5373 41.279 34.9522 41.0677 35.1427L40.8565 35.3332L40.1348 34.5039C40.1348 34.5039 40.9697 34.0943 40.9845 34.1126C40.9988 34.1302 42.2184 34.5373 42.2184 34.5373Z" fill="#6B7B3E"/>
<path d="M42.2188 34.5374C41.5727 34.0329 41.1829 33.4789 41.1829 33.4789L40.1357 34.5048L42.2188 34.5374Z" fill="#4B5B19"/>
<path d="M42.0681 32.864C42.0681 32.864 41.2498 33.4851 41.0885 33.7189L40.9269 33.9539L40.0335 33.3132C40.0335 33.3132 40.7515 32.7219 40.7691 32.736C40.7867 32.7502 42.0673 32.8646 42.0673 32.8646L42.0681 32.864Z" fill="#6B7B3E"/>
<path d="M42.0672 32.8641C41.3219 32.5226 40.8142 32.0727 40.8142 32.0727L40.0326 33.3133L42.0672 32.8641Z" fill="#4B5B19"/>
<path d="M41.9152 31.1361C41.9152 31.1361 41.2806 31.9435 41.1832 32.211L41.0858 32.4786L40.0597 32.0852C40.0597 32.0852 40.6048 31.3319 40.626 31.3413C40.6472 31.3507 41.9144 31.1367 41.9144 31.1367L41.9152 31.1361Z" fill="#6B7B3E"/>
<path d="M41.9153 31.1362C41.108 30.9939 40.5035 30.6872 40.5035 30.6872L40.0606 32.0847L41.9153 31.1362Z" fill="#4B5B19"/>
<path d="M41.4793 29.9554C41.4793 29.9554 40.7346 30.6627 40.5997 30.9137L40.4649 31.1647L39.5061 30.6265C39.5061 30.6265 40.1545 29.9597 40.1739 29.9715C40.1933 29.9833 41.4785 29.9559 41.4785 29.9559L41.4793 29.9554Z" fill="#6B7B3E"/>
<path d="M41.4791 29.9554C40.701 29.6976 40.147 29.3066 40.147 29.3066L39.5067 30.626L41.4791 29.9554Z" fill="#4B5B19"/>
<path d="M40.9065 28.2349C40.9065 28.2349 40.3452 29.0947 40.2721 29.3695L40.199 29.6444L39.142 29.3425C39.142 29.3425 39.6187 28.5437 39.6409 28.5513C39.6626 28.5582 40.9065 28.2349 40.9065 28.2349Z" fill="#6B7B3E"/>
<path d="M40.9056 28.2348C40.0887 28.1638 39.4598 27.9113 39.4598 27.9113L39.141 29.3424L40.9056 28.2348Z" fill="#4B5B19"/>
<path d="M40.2744 41.3162C40.2744 41.3162 39.2597 41.1616 38.9783 41.209L38.6981 41.2566L38.5351 40.1695C38.5351 40.1695 39.4593 40.2732 39.4619 40.2953C39.465 40.3182 40.2744 41.3162 40.2744 41.3162Z" fill="#6B7B3E"/>
<path d="M40.2753 41.3163C40.0012 40.5435 39.97 39.8669 39.97 39.8669L38.5352 40.1702L40.2745 41.3168L40.2753 41.3163Z" fill="#4B5B19"/>
<path d="M39.7487 26.2893C39.7487 26.2893 39.0314 27.0235 38.9057 27.2796L38.7809 27.5352L37.8029 27.0339C37.8029 27.0339 38.4255 26.3427 38.4457 26.3539C38.4659 26.3652 39.7482 26.2886 39.7482 26.2886L39.7487 26.2893Z" fill="#6B7B3E"/>
<path d="M39.7485 26.2894C38.9608 26.0609 38.3925 25.6921 38.3925 25.6921L37.8026 27.034L39.7485 26.2894Z" fill="#4B5B19"/>
<path d="M39.1107 24.5924C39.1107 24.5924 38.5827 25.4727 38.5198 25.7508L38.4577 26.0284L37.3904 25.7665C37.3904 25.7665 37.8372 24.9506 37.8589 24.9574C37.8814 24.9637 39.1112 24.5932 39.1112 24.5932L39.1107 24.5924Z" fill="#6B7B3E"/>
<path d="M39.1115 24.5923C38.2928 24.552 37.6545 24.3241 37.6545 24.3241L37.3898 25.7662L39.112 24.5931L39.1115 24.5923Z" fill="#4B5B19"/>
<path d="M40.5175 39.0615C40.5175 39.0615 39.4986 39.1894 39.2413 39.3124L38.9848 39.4348L38.5311 38.4332C38.5311 38.4332 39.4486 38.28 39.4574 38.3013C39.4662 38.3225 40.5175 39.0615 40.5175 39.0615Z" fill="#6B7B3E"/>
<path d="M40.5182 39.0616C40.0432 38.3928 39.8291 37.7497 39.8291 37.7497L38.5312 38.4326L40.5176 39.0609L40.5182 39.0616Z" fill="#4B5B19"/>
<path d="M40.9684 37.2183C40.9684 37.2183 40.0063 37.5781 39.7845 37.7565L39.5627 37.9348L38.8906 37.0649C38.8906 37.0649 39.7475 36.7041 39.7614 36.723C39.7747 36.7424 40.9684 37.2183 40.9684 37.2183Z" fill="#6B7B3E"/>
<path d="M40.9692 37.2182C40.353 36.6774 39.9957 36.1011 39.9957 36.1011L38.8913 37.0648L40.9692 37.2182Z" fill="#4B5B19"/>
<path d="M41.2398 35.3134C41.2398 35.3134 40.4001 35.9047 40.2309 36.1336L40.0618 36.3625L39.1918 35.6911C39.1918 35.6911 39.9298 35.1258 39.9474 35.14C39.9655 35.1549 41.2403 35.3142 41.2403 35.3142L41.2398 35.3134Z" fill="#6B7B3E"/>
<path d="M41.2397 35.3133C40.507 34.9452 40.0161 34.4781 40.0161 34.4781L39.1912 35.6902L41.2397 35.3133Z" fill="#4B5B19"/>
<path d="M41.3454 33.9816C41.3454 33.9816 40.406 34.3965 40.1947 34.587L39.9835 34.7775L39.2617 33.9482C39.2617 33.9482 40.0967 33.5386 40.1115 33.557C40.1257 33.5746 41.3454 33.9816 41.3454 33.9816Z" fill="#6B7B3E"/>
<path d="M41.3458 33.9817C40.6997 33.4772 40.3098 32.9232 40.3098 32.9232L39.2626 33.9491L41.3458 33.9817Z" fill="#4B5B19"/>
<path d="M41.195 32.3086C41.195 32.3086 40.3767 32.9296 40.2154 33.1634L40.0539 33.3985L39.1605 32.7578C39.1605 32.7578 39.8785 32.1664 39.8961 32.1806C39.9144 32.1942 41.1942 32.3091 41.1942 32.3091L41.195 32.3086Z" fill="#6B7B3E"/>
<path d="M41.1941 32.3087C40.4489 31.9672 39.9412 31.5173 39.9412 31.5173L39.1596 32.7579L41.1941 32.3087Z" fill="#4B5B19"/>
<path d="M40.3863 36.3009C40.3863 36.3009 39.5466 36.8922 39.3774 37.1211L39.2083 37.35L38.3383 36.6786C38.3383 36.6786 39.0763 36.1134 39.0939 36.1275C39.112 36.1424 40.3868 36.3017 40.3868 36.3017L40.3863 36.3009Z" fill="#6B7B3E"/>
<path d="M40.3862 36.3009C39.6535 35.9327 39.1626 35.4657 39.1626 35.4657L38.3377 36.6778L40.3862 36.3009Z" fill="#4B5B19"/>
<path d="M39.2593 37.4924C39.2593 37.4924 38.4196 38.0836 38.2505 38.3125L38.0813 38.5415L37.2113 37.87C37.2113 37.87 37.9493 37.3048 37.9669 37.3189C37.9851 37.3339 39.2598 37.4931 39.2598 37.4931L39.2593 37.4924Z" fill="#6B7B3E"/>
<path d="M39.2593 37.4923C38.5265 37.1241 38.0356 36.6571 38.0356 36.6571L37.2107 37.8692L39.2593 37.4923Z" fill="#4B5B19"/>
<path d="M40.4899 34.9692C40.4899 34.9692 39.5505 35.384 39.3392 35.5745L39.128 35.765L38.4062 34.9358C38.4062 34.9358 39.2412 34.5262 39.256 34.5445C39.2702 34.5621 40.4899 34.9692 40.4899 34.9692Z" fill="#6B7B3E"/>
<path d="M40.4903 34.9693C39.8442 34.4648 39.4544 33.9107 39.4544 33.9107L38.4072 34.9367L40.4903 34.9693Z" fill="#4B5B19"/>
<path d="M40.3415 33.2966C40.3415 33.2966 39.5232 33.9177 39.3619 34.1515L39.2004 34.3866L38.307 33.7459C38.307 33.7459 39.0249 33.1545 39.0425 33.1686C39.0601 33.1828 40.3407 33.2972 40.3407 33.2972L40.3415 33.2966Z" fill="#6B7B3E"/>
<path d="M40.3406 33.2967C39.5953 32.9552 39.0877 32.5053 39.0877 32.5053L38.3055 33.7452L40.3401 33.2959L40.3406 33.2967Z" fill="#4B5B19"/>
<path d="M41.0407 30.5815C41.0407 30.5815 40.4062 31.3888 40.3088 31.6564L40.2114 31.9239L39.1847 31.5297C39.1847 31.5297 39.7298 30.7764 39.751 30.7859C39.7722 30.7953 41.0394 30.5812 41.0394 30.5812L41.0407 30.5815Z" fill="#6B7B3E"/>
<path d="M41.0403 30.5815C40.233 30.4392 39.6285 30.1325 39.6285 30.1325L39.1856 31.53L41.0403 30.5815Z" fill="#4B5B19"/>
<path d="M40.6054 29.4007C40.6054 29.4007 39.8607 30.1081 39.7267 30.3585L39.5919 30.6095L38.6331 30.0713C38.6331 30.0713 39.2815 29.4046 39.3009 29.4164C39.3203 29.4282 40.6054 29.4007 40.6054 29.4007Z" fill="#6B7B3E"/>
<path d="M40.606 29.4007C39.8279 29.143 39.274 28.7519 39.274 28.7519L38.6336 30.0713L40.606 29.4007Z" fill="#4B5B19"/>
<path d="M40.0335 27.68C40.0335 27.68 39.4721 28.5397 39.3991 28.8146L39.326 29.0894L38.2689 28.7876C38.2689 28.7876 38.7456 27.9888 38.7679 27.9964C38.7896 28.0032 40.0335 27.68 40.0335 27.68Z" fill="#6B7B3E"/>
<path d="M40.0325 27.6799C39.2157 27.6088 38.5867 27.3564 38.5867 27.3564L38.268 28.7875L40.0325 27.6799Z" fill="#4B5B19"/>
<path d="M39.4013 40.7613C39.4013 40.7613 38.3867 40.6067 38.1052 40.6541L37.825 40.7017L37.662 39.6146C37.662 39.6146 38.5863 39.7182 38.5888 39.7404C38.5919 39.7633 39.4013 40.7613 39.4013 40.7613Z" fill="#6B7B3E"/>
<path d="M39.4014 40.7614C39.1274 39.9886 39.097 39.3114 39.097 39.3114L37.6621 39.6147L39.4014 40.7614Z" fill="#4B5B19"/>
<path d="M31.053 48.2841C31.053 48.2841 30.5088 47.4135 30.2904 47.2314L30.0713 47.0499L30.7903 46.218C30.7903 46.218 31.3139 46.9867 31.2987 47.0027C31.2827 47.0193 31.0543 48.2843 31.0543 48.2843L31.053 48.2841Z" fill="#6B7B3E"/>
<path d="M31.0532 48.2842C31.4612 47.5732 31.9542 47.1089 31.9542 47.1089L30.7897 46.2186L31.0529 48.2855L31.0532 48.2842Z" fill="#4B5B19"/>
<path d="M32.8506 48.3333C32.8506 48.3333 32.1201 47.6112 31.8647 47.485L31.6094 47.3589L32.1169 46.3834C32.1169 46.3834 32.8041 47.01 32.7928 47.0302C32.7816 47.0504 32.8506 48.3333 32.8506 48.3333Z" fill="#6B7B3E"/>
<path d="M32.8507 48.3332C33.0837 47.547 33.4561 46.9807 33.4561 46.9807L32.1178 46.3828L32.8515 48.3326L32.8507 48.3332Z" fill="#4B5B19"/>
<path d="M34.4735 48.1026C34.4735 48.1026 33.5845 47.5885 33.3053 47.5308L33.027 47.4726L33.2709 46.4005C33.2709 46.4005 34.0942 46.8332 34.0879 46.8556C34.0816 46.8781 34.473 48.1018 34.473 48.1018L34.4735 48.1026Z" fill="#6B7B3E"/>
<path d="M34.4743 48.1026C34.5006 47.2834 34.7182 46.6417 34.7182 46.6417L33.2715 46.4019L34.4736 48.1032L34.4743 48.1026Z" fill="#4B5B19"/>
<path d="M35.7484 47.9952C35.7484 47.9952 34.8533 47.4921 34.5736 47.437L34.294 47.382L34.5256 46.3069C34.5256 46.3069 35.3535 46.7296 35.3485 46.7523C35.343 46.7743 35.7479 47.9944 35.7479 47.9944L35.7484 47.9952Z" fill="#6B7B3E"/>
<path d="M35.7477 47.9952C35.7645 47.1755 35.9746 46.5311 35.9746 46.5311L34.5254 46.3076L35.7477 47.9952Z" fill="#4B5B19"/>
<path d="M38.3207 46.6258C38.3207 46.6258 37.4141 46.1441 37.1332 46.0956L36.8529 46.0478L37.0589 44.9686C37.0589 44.9686 37.8965 45.3722 37.8915 45.3949C37.8866 45.4176 38.3205 46.6271 38.3205 46.6271L38.3207 46.6258Z" fill="#6B7B3E"/>
<path d="M38.3221 46.6258C38.3194 45.8058 38.5149 45.1565 38.5149 45.1565L37.0605 44.9673L38.3221 46.6258Z" fill="#4B5B19"/>
<path d="M37.2836 47.4475C37.2836 47.4475 36.377 46.9659 36.0961 46.9174L35.8158 46.8696L36.0226 45.7898C36.0226 45.7898 36.8602 46.1934 36.8552 46.2161C36.8502 46.2389 37.2842 47.4483 37.2842 47.4483L37.2836 47.4475Z" fill="#6B7B3E"/>
<path d="M37.285 47.4476C37.2823 46.6276 37.4778 45.9783 37.4778 45.9783L36.0234 45.7891L37.285 47.4476Z" fill="#4B5B19"/>
<path d="M39.715 45.5011C39.715 45.5011 38.7159 45.2643 38.4322 45.2883L38.1489 45.313L38.0757 44.2159C38.0757 44.2159 38.9884 44.3944 38.9894 44.4176C38.9905 44.4408 39.7155 45.5019 39.7155 45.5019L39.715 45.5011Z" fill="#6B7B3E"/>
<path d="M39.7155 45.501C39.5062 44.7081 39.5304 44.0311 39.5304 44.0311L38.0762 44.2158L39.7155 45.501Z" fill="#4B5B19"/>
<path d="M40.7353 44.3416C40.7353 44.3416 39.7207 44.187 39.4392 44.2344L39.159 44.282L38.996 43.1949C38.996 43.1949 39.9203 43.2986 39.9228 43.3207C39.9259 43.3436 40.7353 44.3416 40.7353 44.3416Z" fill="#6B7B3E"/>
<path d="M40.7354 44.3417C40.4614 43.569 40.4309 42.8918 40.4309 42.8918L38.9961 43.1951L40.7354 44.3417Z" fill="#4B5B19"/>
<path d="M41.7041 43.2576C41.7041 43.2576 40.6877 43.1088 40.4078 43.1585L40.1274 43.2074L39.9581 42.1212C39.9581 42.1212 40.8829 42.2188 40.886 42.2417C40.889 42.2646 41.7049 43.2571 41.7049 43.2571L41.7041 43.2576Z" fill="#6B7B3E"/>
<path d="M41.705 43.2575C41.4266 42.4866 41.3914 41.8092 41.3914 41.8092L39.959 42.1211L41.705 43.2575Z" fill="#4B5B19"/>
<path d="M29.1532 47.8162C29.1532 47.8162 28.9209 46.816 28.7723 46.5728L28.6237 46.3296L29.5727 45.7753C29.5727 45.7753 29.8198 46.6721 29.7988 46.683C29.7786 46.6933 29.1519 47.8159 29.1519 47.8159L29.1532 47.8162Z" fill="#6B7B3E"/>
<path d="M29.1526 47.816C29.7689 47.2757 30.386 46.9952 30.386 46.9952L29.5728 45.7746L29.1528 47.8147L29.1526 47.816Z" fill="#4B5B19"/>
<path d="M32.8574 17.2007L33.8809 17.4333L33.8929 16.9603L32.8574 17.2007Z" fill="#261C02"/>
<path d="M32.4673 14.9375C32.4673 14.9375 32.9442 15.172 33.429 15.1612C33.9143 15.1511 33.8738 14.9548 33.8738 14.9548L33.8135 14.6242C33.8135 14.6242 33.6104 14.8284 33.3088 14.8895C33.0063 14.9512 32.4668 14.9368 32.4668 14.9368L32.4673 14.9375Z" fill="#261C02"/>
<path d="M32.8384 16.6265C32.8384 16.6265 33.3153 16.861 33.8001 16.8501C34.2855 16.8401 34.2449 16.6437 34.2449 16.6437L34.1846 16.3131C34.1846 16.3131 33.9815 16.5174 33.6799 16.5785C33.3774 16.6402 32.8379 16.6257 32.8379 16.6257L32.8384 16.6265Z" fill="#261C02"/>
<path d="M37.0747 46.3311C37.0747 46.3311 36.168 45.8495 35.8871 45.8009L35.6068 45.7532L35.8128 44.6739C35.8128 44.6739 36.6504 45.0775 36.6455 45.1002C36.6405 45.1229 37.0744 46.3324 37.0744 46.3324L37.0747 46.3311Z" fill="#6B7B3E"/>
<path d="M37.076 46.3311C37.0733 45.5111 37.2688 44.8619 37.2688 44.8619L35.8145 44.6726L37.076 46.3311Z" fill="#4B5B19"/>
<path d="M35.938 46.8552C35.938 46.8552 35.0313 46.3736 34.7504 46.3251L34.4701 46.2773L34.6761 45.1981C34.6761 45.1981 35.5137 45.6017 35.5087 45.6244C35.5038 45.6471 35.9377 46.8565 35.9377 46.8565L35.938 46.8552Z" fill="#6B7B3E"/>
<path d="M35.9393 46.8553C35.9366 46.0353 36.1321 45.386 36.1321 45.386L34.6777 45.1968L35.9388 46.8545L35.9393 46.8553Z" fill="#4B5B19"/>
<path d="M34.6196 47.1131C34.6196 47.1131 33.7129 46.6314 33.432 46.5829L33.1517 46.5352L33.3577 45.4559C33.3577 45.4559 34.1954 45.8595 34.1904 45.8822C34.1854 45.9049 34.6193 47.1144 34.6193 47.1144L34.6196 47.1131Z" fill="#6B7B3E"/>
<path d="M34.621 47.1131C34.6182 46.2931 34.8137 45.6439 34.8137 45.6439L33.3594 45.4546L34.621 47.1131Z" fill="#4B5B19"/>
<path d="M33.3325 47.2708C33.3325 47.2708 32.4258 46.7892 32.1449 46.7406L31.8646 46.6929L32.0706 45.6136C32.0706 45.6136 32.9083 46.0172 32.9033 46.0399C32.8983 46.0626 33.3322 47.2721 33.3322 47.2721L33.3325 47.2708Z" fill="#6B7B3E"/>
<path d="M33.3338 47.2708C33.3311 46.4508 33.5266 45.8016 33.5266 45.8016L32.0723 45.6123L33.3338 47.2708Z" fill="#4B5B19"/>
<path d="M31.7075 47.2735C31.7075 47.2735 31.1802 46.3926 30.9647 46.2063L30.7491 46.0201L31.4836 45.2026C31.4836 45.2026 31.9925 45.9814 31.9765 45.9979C31.9605 46.0145 31.7068 47.2741 31.7068 47.2741L31.7075 47.2735Z" fill="#6B7B3E"/>
<path d="M31.7084 47.2736C32.1297 46.5705 32.6325 46.1155 32.6325 46.1155L31.4852 45.2022L31.7084 47.2736Z" fill="#4B5B19"/>
<path d="M39.2459 39.2767C39.2459 39.2767 38.2356 39.459 37.9853 39.5954L37.7357 39.7313L37.229 38.7556C37.229 38.7556 38.1367 38.5545 38.147 38.5747C38.1566 38.5955 39.2464 39.2775 39.2464 39.2775L39.2459 39.2767Z" fill="#6B7B3E"/>
<path d="M39.2454 39.2767C38.7358 38.6337 38.4874 38.0038 38.4874 38.0038L37.2285 38.7556L39.2454 39.2767Z" fill="#4B5B19"/>
<path d="M39.0928 35.9103C39.0928 35.9103 38.18 36.3809 37.9811 36.5845L37.7817 36.7874L37.0117 36.0024C37.0117 36.0024 37.8209 35.5433 37.8359 35.5604C37.8517 35.5769 39.0923 35.9095 39.0923 35.9095L39.0928 35.9103Z" fill="#6B7B3E"/>
<path d="M39.0924 35.9103C38.4165 35.4454 37.9943 34.9157 37.9943 34.9157L37.0105 36.003L39.0924 35.9103Z" fill="#4B5B19"/>
<path d="M39.1475 32.934C39.1475 32.934 38.2347 33.4046 38.0358 33.6082L37.8364 33.8111L37.0664 33.0261C37.0664 33.0261 37.8756 32.567 37.8906 32.584C37.9064 32.6006 39.1477 32.9327 39.1477 32.9327L39.1475 32.934Z" fill="#6B7B3E"/>
<path d="M39.1471 32.934C38.4712 32.4691 38.049 31.9394 38.049 31.9394L37.0652 33.0267L39.1471 32.934Z" fill="#4B5B19"/>
<path d="M39.1436 30.9942C39.1436 30.9942 38.2308 31.4648 38.0319 31.6685L37.8325 31.8714L37.0625 31.0864C37.0625 31.0864 37.8717 30.6273 37.8867 30.6443C37.9025 30.6608 39.1431 30.9935 39.1431 30.9935L39.1436 30.9942Z" fill="#6B7B3E"/>
<path d="M39.1432 30.9943C38.4673 30.5294 38.0451 29.9997 38.0451 29.9997L37.0613 31.087L39.1432 30.9943Z" fill="#4B5B19"/>
<path d="M39.5225 32.1566C39.5225 32.1566 38.6097 32.6272 38.4108 32.8309L38.2114 33.0338L37.4414 32.2488C37.4414 32.2488 38.2506 31.7896 38.2656 31.8067C38.2806 31.8237 39.522 32.1558 39.522 32.1558L39.5225 32.1566Z" fill="#6B7B3E"/>
<path d="M39.5221 32.1566C38.8462 31.6917 38.424 31.162 38.424 31.162L37.4402 32.2493L39.5221 32.1566Z" fill="#4B5B19"/>
<path d="M39.1846 29.5001C39.1846 29.5001 38.2718 29.9707 38.0729 30.1744L37.8735 30.3773L37.1035 29.5923C37.1035 29.5923 37.9127 29.1332 37.9277 29.1502C37.9435 29.1667 39.1841 29.4994 39.1841 29.4994L39.1846 29.5001Z" fill="#6B7B3E"/>
<path d="M39.1842 29.5001C38.5083 29.0352 38.0861 28.5055 38.0861 28.5055L37.1023 29.5928L39.1842 29.5001Z" fill="#4B5B19"/>
<path d="M39.0909 27.9996C39.0909 27.9996 38.1781 28.4702 37.9792 28.6739L37.7798 28.8768L37.0098 28.0918C37.0098 28.0918 37.819 27.6327 37.834 27.6497C37.849 27.6668 39.0903 27.9989 39.0903 27.9989L39.0909 27.9996Z" fill="#6B7B3E"/>
<path d="M39.0904 27.9996C38.4146 27.5347 37.9923 27.005 37.9923 27.005L37.0086 28.0923L39.0904 27.9996Z" fill="#4B5B19"/>
<path d="M37.9217 40.5652C37.9217 40.5652 36.9114 40.7476 36.661 40.884L36.4115 41.0199L35.9048 40.0442C35.9048 40.0442 36.8125 39.8431 36.8228 39.8633C36.8324 39.884 37.9222 40.566 37.9222 40.566L37.9217 40.5652Z" fill="#6B7B3E"/>
<path d="M37.9211 40.5653C37.4121 39.9231 37.1632 39.2924 37.1632 39.2924L35.9043 40.0442L37.9211 40.5653Z" fill="#4B5B19"/>
<path d="M35.6446 44.0384C35.6446 44.0384 34.6849 43.6725 34.4007 43.6591L34.1166 43.6458L34.1879 42.5491C34.1879 42.5491 35.0696 42.8455 35.0672 42.8687C35.0648 42.8919 35.6453 44.0379 35.6453 44.0379L35.6446 44.0384Z" fill="#6B7B3E"/>
<path d="M35.6441 44.0383C35.5401 43.2248 35.6533 42.5566 35.6533 42.5566L34.1875 42.5491L35.6449 44.0378L35.6441 44.0383Z" fill="#4B5B19"/>
<path d="M33.6055 46.0135C33.6055 46.0135 32.6458 45.6476 32.3616 45.6342L32.0775 45.6209L32.1489 44.5242C32.1489 44.5242 33.0305 44.8206 33.0281 44.8438C33.0258 44.867 33.6063 46.0129 33.6063 46.0129L33.6055 46.0135Z" fill="#6B7B3E"/>
<path d="M33.6051 46.0134C33.5011 45.1999 33.6143 44.5317 33.6143 44.5317L32.1484 44.5242L33.6051 46.0134Z" fill="#4B5B19"/>
<path d="M37.2244 41.9261C37.2244 41.9261 36.2141 42.1084 35.9638 42.2449L35.7142 42.3808L35.2075 41.405C35.2075 41.405 36.1152 41.2039 36.1256 41.2241C36.1352 41.2449 37.2249 41.9269 37.2249 41.9269L37.2244 41.9261Z" fill="#6B7B3E"/>
<path d="M37.2239 41.9261C36.7148 41.2839 36.4659 40.6532 36.4659 40.6532L35.207 41.405L37.2239 41.9261Z" fill="#4B5B19"/>
<path d="M36.5799 42.9883C36.5799 42.9883 35.5696 43.1707 35.3192 43.3071L35.0697 43.443L34.563 42.4672C34.563 42.4672 35.4714 42.2656 35.481 42.2864C35.4906 42.3071 36.5804 42.9891 36.5804 42.9891L36.5799 42.9883Z" fill="#6B7B3E"/>
<path d="M36.5799 42.9884C36.0708 42.3462 35.8219 41.7155 35.8219 41.7155L34.5625 42.4666L36.5793 42.9876L36.5799 42.9884Z" fill="#4B5B19"/>
<path d="M38.1176 45.2705C38.1176 45.2705 37.211 44.7889 36.9301 44.7404L36.6498 44.6926L36.8566 43.6128C36.8566 43.6128 37.6942 44.0164 37.6892 44.0391C37.6842 44.0619 38.1182 45.2713 38.1182 45.2713L38.1176 45.2705Z" fill="#6B7B3E"/>
<path d="M38.119 45.2706C38.1163 44.4505 38.3118 43.8013 38.3118 43.8013L36.8574 43.6121L38.119 45.2706Z" fill="#4B5B19"/>
<path d="M39.3243 44.3373C39.3243 44.3373 38.3207 44.1206 38.0378 44.1508L37.7549 44.1809L37.659 43.0857C37.659 43.0857 38.5752 43.2459 38.5762 43.2691C38.5772 43.2922 39.3243 44.3373 39.3243 44.3373Z" fill="#6B7B3E"/>
<path d="M39.3235 44.3373C39.0978 43.5487 39.1085 42.8719 39.1085 42.8719L37.6582 43.0857L39.3235 44.3373Z" fill="#4B5B19"/>
<path d="M39.4591 43.1327C39.4591 43.1327 38.4555 42.916 38.1726 42.9462L37.8896 42.9763L37.7937 41.8811C37.7937 41.8811 38.71 42.0413 38.711 42.0645C38.712 42.0877 39.4583 43.1332 39.4583 43.1332L39.4591 43.1327Z" fill="#6B7B3E"/>
<path d="M39.4583 43.1327C39.2326 42.3441 39.2433 41.6673 39.2433 41.6673L37.793 41.8811L39.4583 43.1327Z" fill="#4B5B19"/>
<path d="M40.9727 40.7469C40.9727 40.7469 39.9692 40.5302 39.6862 40.5604L39.4033 40.5906L39.3074 39.4953C39.3074 39.4953 40.2236 39.6556 40.2246 39.6787C40.2257 39.7019 40.9727 40.7469 40.9727 40.7469Z" fill="#6B7B3E"/>
<path d="M40.972 40.747C40.7463 39.9584 40.757 39.2816 40.757 39.2816L39.3066 39.4954L40.972 40.747Z" fill="#4B5B19"/>
<path d="M40.1387 42.2347C40.1387 42.2347 39.1352 42.018 38.8522 42.0482L38.5693 42.0784L38.4734 40.9831C38.4734 40.9831 39.3896 41.1433 39.3907 41.1665C39.3917 41.1897 40.1387 42.2347 40.1387 42.2347Z" fill="#6B7B3E"/>
<path d="M40.138 42.2348C39.9123 41.4462 39.923 40.7693 39.923 40.7693L38.4727 40.9832L40.138 42.2348Z" fill="#4B5B19"/>
<path d="M38.6388 41.8949C38.6388 41.8949 37.6352 41.6782 37.3523 41.7084L37.0693 41.7386L36.9734 40.6433C36.9734 40.6433 37.8897 40.8035 37.8907 40.8267C37.8917 40.8499 38.6388 41.8949 38.6388 41.8949Z" fill="#6B7B3E"/>
<path d="M38.638 41.8949C38.4123 41.1063 38.423 40.4295 38.423 40.4295L36.9727 40.6433L38.638 41.8949Z" fill="#4B5B19"/>
<path d="M38.1036 43.2381C38.1036 43.2381 37.1 43.0214 36.8171 43.0516L36.5341 43.0818L36.4383 41.9865C36.4383 41.9865 37.3545 42.1468 37.3555 42.1699C37.3565 42.1931 38.1041 43.2389 38.1041 43.2389L38.1036 43.2381Z" fill="#6B7B3E"/>
<path d="M38.1028 43.2382C37.8771 42.4496 37.8878 41.7728 37.8878 41.7728L36.4375 41.9866L38.1028 43.2382Z" fill="#4B5B19"/>
<path d="M37.3985 44.3744C37.3985 44.3744 36.395 44.1577 36.112 44.1879L35.8291 44.2181L35.7332 43.1228C35.7332 43.1228 36.6494 43.283 36.6504 43.3062C36.6515 43.3293 37.3985 44.3744 37.3985 44.3744Z" fill="#6B7B3E"/>
<path d="M37.3978 44.3744C37.1721 43.5858 37.1828 42.909 37.1828 42.909L35.7324 43.1228L37.3978 44.3744Z" fill="#4B5B19"/>
<path d="M36.2201 45.6356C36.2201 45.6356 35.2894 45.2022 35.0063 45.1688L34.7233 45.1354L34.8724 44.046C34.8724 44.046 35.7307 44.4049 35.7265 44.4271C35.7228 44.45 36.2196 45.6349 36.2196 45.6349L36.2201 45.6356Z" fill="#6B7B3E"/>
<path d="M36.2202 45.6357C36.1753 44.8172 36.3352 44.1592 36.3352 44.1592L34.873 44.0469L36.2194 45.6362L36.2202 45.6357Z" fill="#4B5B19"/>
<path d="M35.2162 46.2118C35.2162 46.2118 34.2855 45.7784 34.0024 45.745L33.7194 45.7116L33.8685 44.6222C33.8685 44.6222 34.7268 44.9811 34.7226 45.0033C34.7189 45.0262 35.2157 46.211 35.2157 46.211L35.2162 46.2118Z" fill="#6B7B3E"/>
<path d="M35.2163 46.2119C35.1709 45.3926 35.3313 44.7354 35.3313 44.7354L33.8691 44.623L35.2155 46.2124L35.2163 46.2119Z" fill="#4B5B19"/>
<path d="M27.1364 21.7015C27.1364 21.7015 28.017 22.0531 28.279 22.069L28.5411 22.0849L28.4594 23.0965C28.4594 23.0965 27.6503 22.8099 27.6522 22.7892C27.6549 22.7681 27.1356 21.7021 27.1356 21.7021L27.1364 21.7015Z" fill="#6B7B3E"/>
<path d="M27.1366 21.7015C27.2212 22.4532 27.1072 23.0685 27.1072 23.0685L28.4604 23.0959L27.1373 21.701L27.1366 21.7015Z" fill="#4B5B19"/>
<path d="M24.0117 25.2937C24.0117 25.2937 24.9588 25.334 25.2119 25.2617L25.4642 25.1898L25.7231 26.1707C25.7231 26.1707 24.8647 26.1688 24.8598 26.1483C24.8549 26.1277 24.0117 25.2937 24.0117 25.2937Z" fill="#6B7B3E"/>
<path d="M24.0117 25.2936C24.3409 25.9754 24.4367 26.5933 24.4367 26.5933L25.7223 26.1711L24.0117 25.2936Z" fill="#4B5B19"/>
<path d="M24.8223 24.0066C24.8223 24.0066 25.7693 24.0469 26.0224 23.9745L26.2747 23.9027L26.5336 24.8835C26.5336 24.8835 25.6753 24.8817 25.6704 24.8612C25.6655 24.8406 24.8223 24.0066 24.8223 24.0066Z" fill="#6B7B3E"/>
<path d="M24.8223 24.0065C25.1514 24.6883 25.2472 25.3062 25.2472 25.3062L26.5329 24.884L24.8223 24.0065Z" fill="#4B5B19"/>
<path d="M25.8887 22.7666C25.8887 22.7666 26.8177 22.9556 27.0785 22.9246L27.3393 22.8936L27.4406 23.9034C27.4406 23.9034 26.5936 23.7664 26.5916 23.7451C26.5908 23.724 25.8892 22.7674 25.8892 22.7674L25.8887 22.7666Z" fill="#6B7B3E"/>
<path d="M25.8896 22.7666C26.1071 23.4914 26.1048 24.1171 26.1048 24.1171L27.441 23.9026L25.8896 22.7666Z" fill="#4B5B19"/>
<path d="M21.7852 31.2292C21.7852 31.2292 22.6811 30.9191 22.8898 30.7599L23.0984 30.6007L23.6986 31.4184C23.6986 31.4184 22.8989 31.7312 22.8873 31.7141C22.8757 31.697 21.7852 31.2292 21.7852 31.2292Z" fill="#6B7B3E"/>
<path d="M21.7852 31.2292C22.3409 31.743 22.6571 32.2824 22.6571 32.2824L23.6986 31.4184L21.7852 31.2292Z" fill="#4B5B19"/>
<path d="M22.0547 29.8875C22.0547 29.8875 22.9506 29.5773 23.1593 29.4181L23.368 29.2589L23.9682 30.0765C23.9682 30.0765 23.1685 30.3894 23.1568 30.3723C23.1452 30.3552 22.0547 29.8875 22.0547 29.8875Z" fill="#6B7B3E"/>
<path d="M22.0547 29.8875C22.6104 30.4012 22.9267 30.9406 22.9267 30.9406L23.9682 30.0765L22.0547 29.8875Z" fill="#4B5B19"/>
<path d="M22.4988 28.3054C22.4988 28.3054 23.4307 28.1298 23.6603 28.003L23.8899 27.8761L24.3635 28.7733C24.3635 28.7733 23.5271 28.9656 23.5178 28.9469C23.5085 28.9283 22.498 28.3059 22.498 28.3059L22.4988 28.3054Z" fill="#6B7B3E"/>
<path d="M22.4981 28.3054C22.9725 28.8951 23.206 29.4749 23.206 29.4749L24.3635 28.7728L22.4981 28.3054Z" fill="#4B5B19"/>
<path d="M23.2012 26.8054C23.2012 26.8054 24.1449 26.7173 24.3859 26.6122L24.6269 26.5072L25.0152 27.4442C25.0152 27.4442 24.164 27.558 24.157 27.5377C24.1492 27.518 23.2012 26.8054 23.2012 26.8054Z" fill="#6B7B3E"/>
<path d="M23.2017 26.8054C23.6195 27.437 23.7987 28.0356 23.7987 28.0356L25.0157 27.4442L23.2017 26.8054Z" fill="#4B5B19"/>
<path d="M21.6191 32.6873C21.6191 32.6873 22.515 32.3771 22.7237 32.2179L22.9324 32.0587L23.5326 32.8764C23.5326 32.8764 22.7329 33.1892 22.7213 33.1721C22.7096 33.1551 21.6191 32.6873 21.6191 32.6873Z" fill="#6B7B3E"/>
<path d="M21.6191 32.6873C22.1749 33.201 22.4911 33.7404 22.4911 33.7404L23.5326 32.8764L21.6191 32.6873Z" fill="#4B5B19"/>
<path d="M21.3967 34.2819C21.3967 34.2819 22.1963 33.7736 22.3634 33.57L22.5297 33.3669L23.3024 34.024C23.3024 34.024 22.5964 34.5128 22.5809 34.4984C22.5653 34.4839 21.3962 34.2811 21.3962 34.2811L21.3967 34.2819Z" fill="#6B7B3E"/>
<path d="M21.3965 34.282C22.0555 34.6538 22.4884 35.1057 22.4884 35.1057L23.3027 34.0248L21.397 34.2828L21.3965 34.282Z" fill="#4B5B19"/>
<path d="M21.5794 36.1341C21.5794 36.1341 22.2249 35.4397 22.3344 35.2015L22.4445 34.9628L23.3584 35.4032C23.3584 35.4032 22.7994 36.0544 22.7803 36.0447C22.7612 36.035 21.5794 36.1341 21.5794 36.1341Z" fill="#6B7B3E"/>
<path d="M21.5801 36.134C22.3116 36.3269 22.8444 36.6551 22.8444 36.6551L23.359 35.4031L21.5801 36.134Z" fill="#4B5B19"/>
<path d="M21.9573 37.2147C21.9573 37.2147 22.6967 36.6213 22.8393 36.4002L22.9825 36.1799L23.8234 36.7484C23.8234 36.7484 23.1762 37.312 23.1589 37.2999C23.1416 37.2878 21.9573 37.2147 21.9573 37.2147Z" fill="#6B7B3E"/>
<path d="M21.957 37.2146C22.6534 37.511 23.1329 37.9129 23.1329 37.9129L23.8231 36.7483L21.957 37.2146Z" fill="#4B5B19"/>
<path d="M22.3536 38.8416C22.3536 38.8416 22.9355 38.094 23.0238 37.8463L23.112 37.5987L24.0609 37.9571C24.0609 37.9571 23.5613 38.6555 23.542 38.6471C23.5226 38.6387 22.3536 38.8416 22.3536 38.8416Z" fill="#6B7B3E"/>
<path d="M22.3535 38.8416C23.0995 38.9688 23.6589 39.2494 23.6589 39.2494L24.0608 37.9571L22.3535 38.8416Z" fill="#4B5B19"/>
<path d="M22.9674 40.3909C22.9674 40.3909 23.3415 39.5199 23.3641 39.2578L23.3868 38.9957L24.3955 39.1032C24.3955 39.1032 24.0887 39.9044 24.0676 39.9017C24.0465 39.8991 22.9669 40.3901 22.9669 40.3901L22.9674 40.3909Z" fill="#6B7B3E"/>
<path d="M22.9668 40.3909C23.7208 40.3263 24.3326 40.4551 24.3326 40.4551L24.395 39.1032L22.9663 40.3901L22.9668 40.3909Z" fill="#4B5B19"/>
<path d="M23.5312 41.5754C23.5312 41.5754 24.0693 40.7951 24.1429 40.5426L24.2165 40.2902L25.1847 40.5935C25.1847 40.5935 24.7265 41.3193 24.7056 41.312C24.686 41.3049 23.5307 41.5746 23.5307 41.5746L23.5312 41.5754Z" fill="#6B7B3E"/>
<path d="M23.5312 41.5754C24.2833 41.6599 24.8578 41.9075 24.8578 41.9075L25.1852 40.5943L23.5312 41.5754Z" fill="#4B5B19"/>
<path d="M24.2977 42.9925C24.2977 42.9925 24.6404 42.1089 24.6549 41.8466L24.6682 41.5841L25.6802 41.6563C25.6802 41.6563 25.4012 42.4682 25.3806 42.4663C25.3594 42.4637 24.2982 42.9933 24.2982 42.9933L24.2977 42.9925Z" fill="#6B7B3E"/>
<path d="M24.2968 42.9926C25.0484 42.9012 25.6642 43.0092 25.6642 43.0092L25.6794 41.6564L24.2968 42.9926Z" fill="#4B5B19"/>
<path d="M25.5425 44.3746C25.5425 44.3746 25.6514 43.4331 25.598 43.1762L25.5446 42.9193L26.5421 42.7332C26.5421 42.7332 26.4771 43.5891 26.4569 43.5926C26.436 43.5955 25.5422 44.3759 25.5422 44.3759L25.5425 44.3746Z" fill="#6B7B3E"/>
<path d="M25.5432 44.3746C26.2471 44.0964 26.8701 44.0448 26.8701 44.0448L26.543 42.7319L25.5432 44.3746Z" fill="#4B5B19"/>
<path d="M26.4877 45.0211C26.4877 45.0211 26.7311 44.1051 26.716 43.8426L26.7008 43.5801L27.7146 43.5398C27.7146 43.5398 27.5273 44.3778 27.5056 44.3778C27.484 44.3777 26.4877 45.0211 26.4877 45.0211Z" fill="#6B7B3E"/>
<path d="M26.4879 45.0211C27.2241 44.847 27.8489 44.8864 27.8489 44.8864L27.7148 43.5397L26.4879 45.0211Z" fill="#4B5B19"/>
<path d="M27.7686 46.0973C27.7686 46.0973 27.7941 45.1501 27.7188 44.8979L27.6428 44.6461L28.6196 44.3729C28.6196 44.3729 28.6305 45.2317 28.61 45.2366C28.5895 45.2415 27.7678 46.0979 27.7678 46.0979L27.7686 46.0973Z" fill="#6B7B3E"/>
<path d="M27.7689 46.0973C28.4451 45.7583 29.0616 45.6521 29.0616 45.6521L28.62 44.3729L27.7689 46.0973Z" fill="#4B5B19"/>
<path d="M29.3307 46.9012C29.3307 46.9012 29.1156 45.978 28.979 45.754L28.8423 45.5299L29.7182 45.0185C29.7182 45.0185 29.9458 45.8467 29.9272 45.856C29.9082 45.8666 29.3299 46.9017 29.3299 46.9017L29.3307 46.9012Z" fill="#6B7B3E"/>
<path d="M29.3301 46.9013C29.8994 46.4021 30.4683 46.1442 30.4683 46.1442L29.7176 45.0186L29.3293 46.9018L29.3301 46.9013Z" fill="#4B5B19"/>
<path d="M28.1207 21.7826C28.1207 21.7826 29.0013 22.1342 29.2634 22.1501L29.5254 22.166L29.4438 23.1775C29.4438 23.1775 28.6347 22.8909 28.6366 22.8703C28.6393 22.8492 28.12 21.7831 28.12 21.7831L28.1207 21.7826Z" fill="#6B7B3E"/>
<path d="M28.1209 21.7826C28.2048 22.5348 28.0916 23.1496 28.0916 23.1496L29.4448 23.177L28.1217 21.782L28.1209 21.7826Z" fill="#4B5B19"/>
<path d="M24.9961 25.3748C24.9961 25.3748 25.9432 25.4151 26.1963 25.3427L26.4486 25.2709L26.7075 26.2517C26.7075 26.2517 25.8491 26.2499 25.8442 26.2293C25.8393 26.2088 24.9961 25.3748 24.9961 25.3748Z" fill="#6B7B3E"/>
<path d="M24.9961 25.3747C25.3252 26.0564 25.421 26.6743 25.421 26.6743L26.7067 26.2521L24.9961 25.3747Z" fill="#4B5B19"/>
<path d="M25.8066 24.0876C25.8066 24.0876 26.7537 24.128 27.0068 24.0556L27.2591 23.9838L27.518 24.9646C27.518 24.9646 26.6596 24.9627 26.6548 24.9422C26.6499 24.9217 25.8066 24.0876 25.8066 24.0876Z" fill="#6B7B3E"/>
<path d="M25.8066 24.0876C26.1358 24.7693 26.2316 25.3872 26.2316 25.3872L27.5172 24.965L25.8066 24.0876Z" fill="#4B5B19"/>
<path d="M26.873 22.8484C26.873 22.8484 27.8021 23.0374 28.0629 23.0064L28.3236 22.9754L28.4249 23.9852C28.4249 23.9852 27.578 23.8482 27.5759 23.8269C27.5739 23.8055 26.8736 22.8492 26.8736 22.8492L26.873 22.8484Z" fill="#6B7B3E"/>
<path d="M26.874 22.8484C27.0915 23.5732 27.0891 24.1989 27.0891 24.1989L28.4253 23.9844L26.874 22.8484Z" fill="#4B5B19"/>
<path d="M22.7695 31.3103C22.7695 31.3103 23.6654 31.0001 23.8741 30.8409L24.0828 30.6817L24.683 31.4994C24.683 31.4994 23.8833 31.8123 23.8717 31.7952C23.86 31.7781 22.7695 31.3103 22.7695 31.3103Z" fill="#6B7B3E"/>
<path d="M22.7695 31.3103C23.3253 31.8241 23.6415 32.3634 23.6415 32.3634L24.683 31.4994L22.7695 31.3103Z" fill="#4B5B19"/>
<path d="M23.0391 29.9685C23.0391 29.9685 23.935 29.6583 24.1437 29.4991L24.3524 29.3399L24.9525 30.1576C24.9525 30.1576 24.1528 30.4705 24.1412 30.4534C24.1296 30.4363 23.0391 29.9685 23.0391 29.9685Z" fill="#6B7B3E"/>
<path d="M23.0391 29.9685C23.5948 30.4823 23.911 31.0217 23.911 31.0217L24.9525 30.1576L23.0391 29.9685Z" fill="#4B5B19"/>
<path d="M23.4832 28.3867C23.4832 28.3867 24.4143 28.2117 24.6447 28.0843L24.8743 27.9574L25.3479 28.8546C25.3479 28.8546 24.5115 29.0469 24.5022 29.0282C24.4929 29.0095 23.4824 28.3872 23.4824 28.3872L23.4832 28.3867Z" fill="#6B7B3E"/>
<path d="M23.4824 28.3867C23.9568 28.9764 24.1904 29.5562 24.1904 29.5562L25.3479 28.8541L23.4824 28.3867Z" fill="#4B5B19"/>
<path d="M24.1875 26.8875C24.1875 26.8875 25.1312 26.7993 25.3722 26.6943L25.6133 26.5892L26.0015 27.5263C26.0015 27.5263 25.1503 27.64 25.1433 27.6198C25.1355 27.6001 24.1883 26.8869 24.1883 26.8869L24.1875 26.8875Z" fill="#6B7B3E"/>
<path d="M24.1869 26.8873C24.6046 27.519 24.7831 28.1181 24.7831 28.1181L26.0001 27.5267L24.1861 26.8879L24.1869 26.8873Z" fill="#4B5B19"/>
<path d="M22.6035 32.7693C22.6035 32.7693 23.4994 32.4591 23.7081 32.2999L23.9168 32.1407L24.517 32.9584C24.517 32.9584 23.7173 33.2712 23.7056 33.2542C23.694 33.2371 22.6035 32.7693 22.6035 32.7693Z" fill="#6B7B3E"/>
<path d="M22.6035 32.7693C23.1592 33.2831 23.4755 33.8224 23.4755 33.8224L24.517 32.9584L22.6035 32.7693Z" fill="#4B5B19"/>
<path d="M22.3811 34.3637C22.3811 34.3637 23.1807 33.8554 23.3478 33.6518L23.5141 33.4487L24.2867 34.1057C24.2867 34.1057 23.5808 34.5946 23.5652 34.5801C23.5497 34.5657 22.3806 34.3629 22.3806 34.3629L22.3811 34.3637Z" fill="#6B7B3E"/>
<path d="M22.3809 34.3638C23.0399 34.7356 23.4728 35.1875 23.4728 35.1875L24.287 34.1066L22.3814 34.3645L22.3809 34.3638Z" fill="#4B5B19"/>
<path d="M23.1877 35.1523C23.1877 35.1523 23.9873 34.644 24.1544 34.4404L24.3207 34.2373L25.0934 34.8943C25.0934 34.8943 24.3874 35.3832 24.3719 35.3687C24.3563 35.3543 23.1872 35.1515 23.1872 35.1515L23.1877 35.1523Z" fill="#6B7B3E"/>
<path d="M23.1875 35.1523C23.8473 35.5236 24.2794 35.9761 24.2794 35.9761L25.0937 34.8951L23.188 35.1531L23.1875 35.1523Z" fill="#4B5B19"/>
<path d="M23.553 33.6122C23.553 33.6122 24.3526 33.1039 24.5196 32.9003L24.6859 32.6973L25.4586 33.3543C25.4586 33.3543 24.7526 33.8431 24.7371 33.8287C24.7216 33.8142 23.5524 33.6115 23.5524 33.6115L23.553 33.6122Z" fill="#6B7B3E"/>
<path d="M23.5527 33.6123C24.2126 33.9836 24.6447 34.436 24.6447 34.436L25.4589 33.3551L23.5533 33.6131L23.5527 33.6123Z" fill="#4B5B19"/>
<path d="M23.7737 32.007C23.7737 32.007 24.5733 31.4987 24.7403 31.2951L24.9066 31.092L25.6798 31.7498C25.6798 31.7498 24.9738 32.2387 24.9583 32.2242C24.9428 32.2098 23.7737 32.007 23.7737 32.007Z" fill="#6B7B3E"/>
<path d="M23.7734 32.0071C24.4333 32.3783 24.8654 32.8308 24.8654 32.8308L25.6796 31.7499L23.774 32.0079L23.7734 32.0071Z" fill="#4B5B19"/>
<path d="M24.4043 29.6682C24.4043 29.6682 25.3247 29.4425 25.548 29.3029L25.7704 29.1639L26.2924 30.0337C26.2924 30.0337 25.4677 30.2715 25.4571 30.2526C25.4465 30.2337 24.4043 29.6682 24.4043 29.6682Z" fill="#6B7B3E"/>
<path d="M24.4043 29.6682C24.9102 30.2307 25.1752 30.7982 25.1752 30.7982L26.2924 30.0337L24.4043 29.6682Z" fill="#4B5B19"/>
<path d="M24.7637 27.9609C24.7637 27.9609 25.6841 27.7352 25.9073 27.5957L26.1298 27.4566L26.6518 28.3265C26.6518 28.3265 25.8271 28.5643 25.8165 28.5453C25.8059 28.5264 24.7637 27.9609 24.7637 27.9609Z" fill="#6B7B3E"/>
<path d="M24.7637 27.9609C25.2696 28.5234 25.5345 29.0909 25.5345 29.0909L26.6518 28.3265L24.7637 27.9609Z" fill="#4B5B19"/>
<path d="M22.5638 36.2154C22.5638 36.2154 23.2093 35.521 23.3187 35.2828L23.4289 35.0441L24.3427 35.4845C24.3427 35.4845 23.7838 36.1357 23.7647 36.126C23.7455 36.1163 22.5638 36.2154 22.5638 36.2154Z" fill="#6B7B3E"/>
<path d="M22.5645 36.2153C23.296 36.4082 23.8288 36.7364 23.8288 36.7364L24.3434 35.4844L22.5645 36.2153Z" fill="#4B5B19"/>
<path d="M22.9417 37.296C22.9417 37.296 23.681 36.7026 23.8237 36.4815L23.9669 36.2612L24.8077 36.8297C24.8077 36.8297 24.1606 37.3933 24.1433 37.3812C24.126 37.3691 22.9417 37.296 22.9417 37.296Z" fill="#6B7B3E"/>
<path d="M22.9414 37.2959C23.6378 37.5923 24.1173 37.9942 24.1173 37.9942L24.8074 36.8296L22.9414 37.2959Z" fill="#4B5B19"/>
<path d="M23.338 38.9227C23.338 38.9227 23.9199 38.175 24.0081 37.9274L24.0963 37.6797L25.0453 38.0382C25.0453 38.0382 24.5457 38.7366 24.5263 38.7282C24.507 38.7197 23.338 38.9227 23.338 38.9227Z" fill="#6B7B3E"/>
<path d="M23.3379 38.9226C24.0839 39.0499 24.6433 39.3304 24.6433 39.3304L25.0452 38.0381L23.3379 38.9226Z" fill="#4B5B19"/>
<path d="M23.9537 40.4722C23.9537 40.4722 24.3278 39.6012 24.3505 39.3391L24.3731 39.077L25.3819 39.1845C25.3819 39.1845 25.0751 39.9857 25.0539 39.983C25.0328 39.9804 23.9532 40.4714 23.9532 40.4714L23.9537 40.4722Z" fill="#6B7B3E"/>
<path d="M23.9531 40.4722C24.7071 40.4076 25.319 40.5364 25.319 40.5364L25.3813 39.1845L23.9526 40.4714L23.9531 40.4722Z" fill="#4B5B19"/>
<path d="M24.5175 41.6562C24.5175 41.6562 25.0557 40.8759 25.1292 40.6234L25.2028 40.371L26.171 40.6743C26.171 40.6743 25.7128 41.4001 25.6919 41.3928C25.6723 41.3857 24.517 41.6554 24.517 41.6554L24.5175 41.6562Z" fill="#6B7B3E"/>
<path d="M24.5176 41.6562C25.2697 41.7407 25.8441 41.9883 25.8441 41.9883L26.1716 40.6751L24.5176 41.6562Z" fill="#4B5B19"/>
<path d="M25.282 43.0731C25.282 43.0731 25.6247 42.1894 25.6393 41.9272L25.6526 41.6646L26.6646 41.7369C26.6646 41.7369 26.3856 42.5488 26.3649 42.5469C26.3438 42.5442 25.2826 43.0739 25.2826 43.0739L25.282 43.0731Z" fill="#6B7B3E"/>
<path d="M25.2812 43.0731C26.0328 42.9817 26.6486 43.0897 26.6486 43.0897L26.6638 41.7369L25.2812 43.0731Z" fill="#4B5B19"/>
<path d="M26.5269 44.4567C26.5269 44.4567 26.6358 43.5152 26.5824 43.2582L26.529 43.0013L27.5265 42.8152C27.5265 42.8152 27.4615 43.6711 27.4412 43.6747C27.4204 43.6775 26.5266 44.458 26.5266 44.458L26.5269 44.4567Z" fill="#6B7B3E"/>
<path d="M26.5275 44.4567C27.2314 44.1784 27.8545 44.1268 27.8545 44.1268L27.5274 42.8139L26.5275 44.4567Z" fill="#4B5B19"/>
<path d="M27.4721 45.1029C27.4721 45.1029 27.7154 44.1869 27.7003 43.9244L27.6852 43.6619L28.699 43.6216C28.699 43.6216 28.5116 44.4596 28.49 44.4596C28.4684 44.4595 27.4721 45.1029 27.4721 45.1029Z" fill="#6B7B3E"/>
<path d="M27.4723 45.1029C28.2085 44.9288 28.8332 44.9681 28.8332 44.9681L28.6992 43.6215L27.4723 45.1029Z" fill="#4B5B19"/>
<path d="M28.7549 46.1786C28.7549 46.1786 28.7804 45.2314 28.7052 44.9792L28.6292 44.7274L29.606 44.4542C29.606 44.4542 29.6169 45.313 29.5963 45.3179C29.5758 45.3228 28.7541 46.1792 28.7541 46.1792L28.7549 46.1786Z" fill="#6B7B3E"/>
<path d="M28.7553 46.1786C29.4315 45.8396 30.048 45.7334 30.048 45.7334L29.6063 44.4542L28.7553 46.1786Z" fill="#4B5B19"/>
<path d="M30.3151 46.983C30.3151 46.983 30.1 46.0598 29.9633 45.8358L29.8266 45.6117L30.7025 45.1003C30.7025 45.1003 30.9302 45.9285 30.9115 45.9378C30.8926 45.9484 30.3143 46.9835 30.3143 46.9835L30.3151 46.983Z" fill="#6B7B3E"/>
<path d="M30.3145 46.9831C30.8838 46.4839 31.4527 46.226 31.4527 46.226L30.7019 45.1004L30.3137 46.9836L30.3145 46.9831Z" fill="#4B5B19"/>
<path d="M23.9605 36.3948C23.9605 36.3948 24.7778 35.9142 24.9504 35.7171L25.1238 35.5194L25.8738 36.2032C25.8738 36.2032 25.1522 36.6675 25.1362 36.6523C25.1214 36.6373 23.96 36.394 23.96 36.394L23.9605 36.3948Z" fill="#6B7B3E"/>
<path d="M23.9609 36.3948C24.6069 36.7891 25.0236 37.2555 25.0236 37.2555L25.8743 36.2032L23.9609 36.3948Z" fill="#4B5B19"/>
<path d="M23.9449 35.4881C23.9449 35.4881 24.7622 35.0075 24.9348 34.8103L25.1082 34.6127L25.8582 35.2965C25.8582 35.2965 25.1366 35.7607 25.1205 35.7455C25.1058 35.7305 23.9443 35.4873 23.9443 35.4873L23.9449 35.4881Z" fill="#6B7B3E"/>
<path d="M23.9453 35.488C24.5913 35.8824 25.0079 36.3488 25.0079 36.3488L25.8586 35.2964L23.9453 35.488Z" fill="#4B5B19"/>
<path d="M24.146 38.167C24.146 38.167 24.9634 37.6864 25.136 37.4893L25.3094 37.2916L26.0594 37.9754C26.0594 37.9754 25.3378 38.4397 25.3217 38.4245C25.307 38.4095 24.1455 38.1663 24.1455 38.1663L24.146 38.167Z" fill="#6B7B3E"/>
<path d="M24.1465 38.167C24.7925 38.5613 25.2091 39.0277 25.2091 39.0277L26.0598 37.9754L24.1465 38.167Z" fill="#4B5B19"/>
<path d="M37.4522 20.8223C37.4522 20.8223 37.1555 21.8053 37.1618 22.0898L37.1693 22.3745L36.07 22.381C36.07 22.381 36.3036 21.4808 36.3258 21.4816C36.3487 21.4819 37.4508 20.822 37.4508 20.822L37.4522 20.8223Z" fill="#6B7B3E"/>
<path d="M37.4524 20.8222C36.6483 20.9834 35.9743 20.9185 35.9743 20.9185L36.0708 22.3817L37.4524 20.8222Z" fill="#4B5B19"/>
<path d="M38.667 21.7498C38.667 21.7498 38.3704 22.7328 38.3766 23.0173L38.3841 23.302L37.2848 23.3085C37.2848 23.3085 37.5184 22.4083 37.5414 22.4086C37.5643 22.4088 38.6665 21.749 38.6665 21.749L38.667 21.7498Z" fill="#6B7B3E"/>
<path d="M38.6672 21.7497C37.8631 21.9109 37.1892 21.846 37.1892 21.846L37.2856 23.3092L38.6672 21.7497Z" fill="#4B5B19"/>
<path d="M38.5306 23.2857C38.5306 23.2857 38.0026 24.166 37.9397 24.4442L37.8776 24.7218L36.8103 24.4599C36.8103 24.4599 37.2571 23.644 37.2788 23.6508C37.3013 23.6571 38.5312 23.2865 38.5312 23.2865L38.5306 23.2857Z" fill="#6B7B3E"/>
<path d="M38.5314 23.2856C37.7128 23.2453 37.0744 23.0175 37.0744 23.0175L36.8097 24.4595L38.5319 23.2864L38.5314 23.2856Z" fill="#4B5B19"/>
<path d="M37.4302 22.7578C37.4302 22.7578 37.1265 23.7388 37.1319 24.0238L37.1374 24.3088L36.038 24.3086C36.038 24.3086 36.2774 23.4101 36.3003 23.4103C36.3238 23.4114 37.4302 22.7578 37.4302 22.7578Z" fill="#6B7B3E"/>
<path d="M37.431 22.7577C36.6258 22.914 35.952 22.8444 35.952 22.8444L36.0388 24.3085L37.4302 22.7583L37.431 22.7577Z" fill="#4B5B19"/>
<path d="M36.0408 20.8608C36.0408 20.8608 35.7575 21.8484 35.7687 22.1318L35.7796 22.4165L34.6807 22.4386C34.6807 22.4386 34.9013 21.5359 34.925 21.5356C34.9479 21.5359 36.0416 20.8603 36.0416 20.8603L36.0408 20.8608Z" fill="#6B7B3E"/>
<path d="M36.0416 20.8608C35.24 21.034 34.565 20.9776 34.565 20.9776L34.682 22.4393L36.0421 20.8615L36.0416 20.8608Z" fill="#4B5B19"/>
<path d="M34.5809 19.0134C34.5809 19.0134 34.675 20.036 34.7891 20.297L34.9033 20.558L33.8878 20.978C33.8878 20.978 33.7658 20.0562 33.7863 20.048C33.8081 20.0399 34.5809 19.0134 34.5809 19.0134Z" fill="#6B7B3E"/>
<path d="M34.5813 19.0133C33.8971 19.4657 33.2473 19.6582 33.2473 19.6582L33.8869 20.9776L34.5813 19.0133Z" fill="#4B5B19"/>
<path d="M32.7738 18.7917C32.7738 18.7917 33.43 19.5815 33.671 19.7334L33.9122 19.8839L33.3117 20.8045C33.3117 20.8045 32.6895 20.1132 32.7026 20.094C32.7157 20.0749 32.7738 18.7917 32.7738 18.7917Z" fill="#6B7B3E"/>
<path d="M32.7729 18.7918C32.4639 19.5513 32.0373 20.0783 32.0373 20.0783L33.3107 20.8046L32.7729 18.7918Z" fill="#4B5B19"/>
<path d="M31.9476 19.7683C31.9476 19.7683 32.6038 20.5581 32.8448 20.7099L33.086 20.8605L32.4855 21.7811C32.4855 21.7811 31.8634 21.0897 31.877 21.0714C31.8901 21.0522 31.9482 19.7691 31.9482 19.7691L31.9476 19.7683Z" fill="#6B7B3E"/>
<path d="M31.9467 19.7683C31.6377 20.5279 31.2112 21.0548 31.2112 21.0548L32.4845 21.7811L31.9467 19.7683Z" fill="#4B5B19"/>
<path d="M34.7946 20.5575C34.7946 20.5575 34.5766 21.5608 34.606 21.8443L34.6362 22.1273L33.5412 22.2218C33.5412 22.2218 33.7019 21.3064 33.7246 21.3046C33.7478 21.3036 34.7938 20.558 34.7938 20.558L34.7946 20.5575Z" fill="#6B7B3E"/>
<path d="M34.7941 20.5575C34.0057 20.7819 33.3284 20.7704 33.3284 20.7704L33.5414 22.2212L34.7948 20.5569L34.7941 20.5575Z" fill="#4B5B19"/>
<path d="M33.2034 20.3766C33.2034 20.3766 32.2766 21.3705 31.9722 21.2709C31.6672 21.1718 31.5507 20.6521 31.5507 20.6521C31.5507 20.6521 31.247 21.2909 30.865 21.426C30.4831 21.5612 30.3135 20.9651 30.3135 20.9651L30.2549 21.2278C30.1963 21.4906 30.06 21.863 29.837 21.9444C29.6145 22.0266 29.2825 21.4992 29.2825 21.4992C29.2825 21.4992 29.4448 22.0445 29.0399 22.5147C28.6355 22.9857 27.9986 22.276 27.9986 22.276C27.9986 22.276 28.1469 22.6774 28.2422 23.0024C28.3109 23.2352 28.2854 23.4663 28.1748 23.611C28.1982 23.5018 28.2062 23.4486 28.1924 23.4683C28.1659 23.5079 28.1413 23.5803 28.1149 23.6733C28.0821 23.7002 28.0448 23.7222 28.0027 23.7372C27.754 23.8226 27.0696 23.4521 27.0696 23.4521C27.0696 23.4521 27.768 24.6508 27.5957 24.9353C27.5625 24.9783 27.5282 25.0199 27.4916 25.0596C26.9947 25.5833 25.9551 25.1685 25.9551 25.1685C25.9551 25.1685 26.9594 26.2974 26.5645 26.6289C26.1697 26.9604 25.1929 27.0517 25.1929 27.0517C25.1929 27.0517 26.5457 27.8194 26.2501 28.3083C25.9551 28.798 25.0712 29.0341 25.0712 29.0341C25.0712 29.0341 25.1454 29.0529 25.5956 29.3316C25.9907 29.5763 26.0931 29.8919 25.9999 30.2373C25.5531 30.686 24.6232 30.5191 24.6232 30.5191C24.6232 30.5191 25.8338 31.4235 25.5144 31.8275C25.1951 32.2314 24.2557 32.5178 24.2557 32.5178C24.2557 32.5178 25.7348 32.9971 25.544 33.5363C25.3532 34.0755 24.5346 34.4842 24.5346 34.4842C24.5346 34.4842 24.611 34.4878 25.1079 34.67C25.36 34.7631 25.5203 34.8983 25.6077 35.065C25.6103 35.1371 25.6079 35.2172 25.5955 35.304C25.5354 35.7349 24.6355 35.642 24.6355 35.642C24.6355 35.642 25.4806 36.145 25.5379 36.5846C25.5952 37.0241 24.5604 37.2505 24.5604 37.2505C24.5604 37.2505 25.7171 37.6936 25.6995 38.0216C25.6811 38.3501 24.9439 39.1502 24.9822 39.1797C25.0205 39.2093 26.0599 39.1515 26.0599 39.1515L25.295 40.2114L26.1671 40.0448L25.3646 41.5951L26.4912 41.3665L26.0209 42.9691L27.2993 42.5814L27.236 43.443L27.6992 43.332C27.6992 43.332 29.1283 45.5585 30.4865 45.6632C33.5021 45.895 36.8643 43.5434 37.8733 37.7487C38.1951 35.9017 38.2954 32.2391 38.292 31.4581C38.2826 29.3867 37.6821 26.5276 37.3273 25.6496C35.5773 21.3217 33.709 21.1439 33.3679 21.1955C33.0268 21.2471 33.1995 20.3758 33.1995 20.3758L33.2034 20.3766Z" fill="#FFE6C1"/>
<path d="M27.594 27.7783C26.9966 29.5664 26.5093 33.6404 26.6138 35.2539C26.7177 36.8666 26.7342 38.7082 27.3283 39.9325C27.9224 41.1567 29.1362 42.8035 29.3131 43.4821C29.49 44.1607 30.2768 45.6128 31.468 45.2505C32.6596 44.8889 33.1386 44.6775 34.8878 42.5095C36.6363 40.342 37.4132 38.4555 37.4766 36.5493C37.5404 34.6438 37.2236 33.4512 37.2004 32.2189C37.1654 30.3069 36.2771 24.8225 34.2115 22.4909C33.2384 21.3929 30.0596 20.3925 27.5929 27.7768L27.594 27.7783Z" fill="#F4C895"/>
<path d="M27.3805 34.4867C27.3805 34.4867 27.351 38.4217 27.6901 39.4035C28.0293 40.3854 29.1164 41.666 29.4466 42.2708C29.7768 42.8757 30.0955 43.5839 30.2352 44.031C30.3749 44.478 30.9647 45.0619 31.62 44.6689C32.2754 44.2759 33.2677 43.0009 34.0768 41.9609C34.8865 40.9217 36.083 39.3974 36.2925 38.7421C36.5019 38.0867 36.5031 37.0538 36.6233 35.4896C36.7426 33.926 36.6006 32.6746 36.6348 32.3092C36.7838 30.7106 36.0156 27.3667 36.0156 27.3667L29.0255 34.8791L27.3813 34.4861L27.3805 34.4867Z" fill="#E77F40"/>
<path d="M30.7858 43.9926C30.9834 44.1775 31.2835 44.1993 31.5066 44.0462C32.2693 43.5255 32.1472 43.1426 34.6208 40.1356C35.7737 38.7342 36.0886 36.6032 36.0822 35.4356C36.0752 34.2672 36.6578 31.6549 36.2964 28.6228C35.9349 25.5906 34.3806 22.9801 33.4834 22.4556C32.7956 22.0534 29.5825 21.8686 28.327 26.442C27.0716 31.0154 27.18 33.863 27.3456 36.0953C27.5112 38.3275 27.7404 39.5218 29.289 41.3997C30.98 43.45 30.3003 43.5402 30.7851 43.9932L30.7858 43.9926Z" fill="#FFCA00"/>
<path d="M30.3148 23.6068C30.0425 23.9163 29.8152 24.27 29.6181 24.6316C28.8066 26.1153 28.4168 27.8143 28.5025 29.4837C28.5557 30.5263 28.9061 31.4061 29.3624 32.3264C29.7637 33.1341 30.934 33.12 31.6555 32.7423C32.3738 32.3667 32.8237 31.6271 33.1544 30.8926C34.1586 28.6672 34.6711 25.8468 33.5292 23.6214C33.2576 23.0925 32.8684 22.6779 32.2309 22.6416C31.796 22.6172 31.3613 22.7701 30.9934 23.0093C30.7381 23.1753 30.5135 23.3795 30.3135 23.6066L30.3148 23.6068Z" fill="#FFDF82"/>
<path d="M28.0319 38.7205C28.0303 38.7648 28.0338 38.8101 28.0424 38.8543C28.0868 39.1014 28.2176 39.3635 28.3269 39.5891C28.4629 39.8705 28.6235 40.1396 28.8051 40.3945C29.4661 41.3265 30.2339 41.9732 30.4033 42.5489C30.5727 43.1247 30.772 43.6641 31.1357 43.5573C31.4981 43.4503 31.932 42.5636 32.559 41.7285C33.1859 40.8933 34.2761 39.6585 34.6463 38.8686C35.0157 38.0793 35.2718 36.3226 35.3436 35.5234C35.4153 34.7243 35.5599 33.3879 35.6142 32.7201C35.6691 32.053 35.0596 32.1544 34.4712 34.4797C33.8828 36.8049 33.0711 38.2968 32.0567 39.289C31.5785 39.7568 30.9113 39.9738 30.2491 39.9178C29.9875 39.8959 29.724 39.8345 29.487 39.7185C29.1652 39.5615 28.9895 39.2651 28.7643 38.9946C28.6261 38.8284 28.4863 38.6633 28.344 38.5011C28.3034 38.4548 28.2495 38.404 28.1896 38.4164C28.1538 38.4237 28.1267 38.4524 28.1061 38.4823C28.0592 38.5518 28.0373 38.6349 28.034 38.7202L28.0319 38.7205Z" fill="#FFB41A"/>
<path d="M27.9963 36.2355C27.8959 36.1982 27.7855 36.2632 27.7688 36.3689C27.7453 36.5179 27.7858 36.7392 28.108 36.9619C28.6701 37.3498 29.8904 37.6678 30.1958 37.462C30.502 37.2557 30.2031 37.0638 29.6787 36.9765C29.1548 36.89 28.7655 36.7824 28.5319 36.6164C28.2984 36.4504 28.1106 36.2782 27.9989 36.236C27.9984 36.2353 27.9971 36.235 27.9958 36.2348L27.9963 36.2355Z" fill="#FFB41A"/>
<path d="M28.2145 37.6089C28.3355 37.7232 29.2839 38.1809 29.539 38.2117C29.795 38.242 29.6972 38.3404 29.5904 38.3689C29.4836 38.3973 28.9091 38.1748 28.5185 37.9384C28.1279 37.7021 27.9723 37.6273 28.0112 37.5758C28.05 37.5243 28.2145 37.6089 28.2145 37.6089Z" fill="#FFB41A"/>
<path d="M32.6461 35.7936C33.1978 35.976 34.4265 36.0609 34.9718 35.8236C35.5164 35.5867 35.732 34.2929 35.357 34.3415C34.9812 34.3906 34.3345 35.0698 33.6517 35.1087C32.9688 35.1475 32.5453 35.195 32.4278 35.4047C32.3103 35.6143 32.5405 35.7587 32.6461 35.7936Z" fill="#FFB41A"/>
<path d="M27.8826 32.8192C27.8826 32.8192 27.8737 34.4098 27.9523 34.9508C28.0309 35.4917 28.8212 36.1879 29.4787 36.247C30.1362 36.3061 31.4096 35.624 31.6478 34.6069C31.8867 33.5893 31.0726 33.5539 30.1309 33.4565C29.1893 33.3591 28.7312 31.9706 28.3259 31.9647C27.9206 31.9589 27.8813 32.8189 27.8813 32.8189L27.8826 32.8192Z" fill="#FFDF82"/>
</svg>
